<svg width="24" height="24" viewBox="0 0 24 24" fill="none" xmlns="http://www.w3.org/2000/svg">
<path opacity="0.4" d="M19.9927 18.9534H14.2984C13.7429 18.9534 13.291 19.4124 13.291 19.9767C13.291 20.5422 13.7429 21.0001 14.2984 21.0001H19.9927C20.5483 21.0001 21.0001 20.5422 21.0001 19.9767C21.0001 19.4124 20.5483 18.9534 19.9927 18.9534Z" fill="url(#paint0_linear_192_2510)"/>
<path d="M10.309 6.90385L15.7049 11.2639C15.835 11.3682 15.8573 11.5596 15.7557 11.6929L9.35874 20.0282C8.95662 20.5431 8.36402 20.8344 7.72908 20.8452L4.23696 20.8882C4.05071 20.8903 3.88775 20.7613 3.84542 20.5764L3.05175 17.1258C2.91419 16.4915 3.05175 15.8358 3.45388 15.3306L9.88256 6.95545C9.98627 6.82108 10.1778 6.79743 10.309 6.90385Z" fill="url(#paint1_linear_192_2510)"/>
<path opacity="0.4" d="M18.1208 8.66544L17.0806 9.96401C16.9758 10.0962 16.7874 10.1177 16.6573 10.0124C15.3927 8.98901 12.1545 6.36285 11.2561 5.63509C11.1249 5.52759 11.1069 5.33625 11.2127 5.20295L12.2159 3.95706C13.126 2.78534 14.7133 2.67784 15.9938 3.69906L17.4647 4.87078C18.0679 5.34377 18.47 5.96726 18.6076 6.62299C18.7663 7.3443 18.597 8.0527 18.1208 8.66544Z" fill="url(#paint2_linear_192_2510)"/>
<defs>
<linearGradient id="paint0_linear_192_2510" x1="13.291" y1="18.8277" x2="20.089" y2="22.7948" gradientUnits="userSpaceOnUse">
<stop stop-color="#53E88B"/>
<stop offset="1" stop-color="#15BE77"/>
</linearGradient>
<linearGradient id="paint1_linear_192_2510" x1="3" y1="5.97438" x2="17.8571" y2="8.07448" gradientUnits="userSpaceOnUse">
<stop stop-color="#53E88B"/>
<stop offset="1" stop-color="#15BE77"/>
</linearGradient>
<linearGradient id="paint2_linear_192_2510" x1="11.144" y1="2.56531" x2="19.8007" y2="3.99031" gradientUnits="userSpaceOnUse">
<stop stop-color="#53E88B"/>
<stop offset="1" stop-color="#15BE77"/>
</linearGradient>
</defs>
</svg>
