<?xml version="1.0" encoding="utf-8"?>
<!-- Generator: Adobe Illustrator 14.0.0, SVG Export Plug-In . SVG Version: 6.00 Build 43363)  -->
<!DOCTYPE svg PUBLIC "-//W3C//DTD SVG 1.1//EN" "http://www.w3.org/Graphics/SVG/1.1/DTD/svg11.dtd">
<svg version="1.1" xmlns="http://www.w3.org/2000/svg" xmlns:xlink="http://www.w3.org/1999/xlink" x="0px" y="0px" width="2272px"
	 height="1872px" viewBox="0 0 2272 1872" enable-background="new 0 0 2272 1872" xml:space="preserve">
<g id="back">
	<rect fill="#E4EAEA" width="2271.75" height="1872"/>
</g>
<g id="Grocery_Store">
	<g id="product_shelf">
		<g>
			<rect x="152.646" y="239.114" fill="#496363" width="1772.637" height="985.912"/>
			<g>
				<rect x="100.208" y="1226.193" fill="#6A6E6F" width="1877.512" height="26.219"/>
				<g>
					<path fill="#D6712D" d="M1381.157,1034.065l0.059-8.809l-36.165-0.046l-0.06,8.809c-18.34,5.264-25.959,22.133-25.997,42.169
						l-0.253,135.534c-0.013,7.271,5.869,13.175,13.14,13.188l61.6,0.115c7.271,0.013,13.175-5.869,13.188-13.14l0.253-135.534
						C1406.96,1056.316,1399.477,1039.397,1381.157,1034.065z"/>
					<rect x="1341.999" y="1014.958" fill="#ECF0F1" width="41.767" height="13.389"/>
					<path fill="#ED985F" d="M1333.98,1203.131L1333.98,1203.131c-2.56,0-4.635-2.075-4.635-4.635v-126.675
						c0-2.56,2.075-4.634,4.635-4.634l0,0c2.56,0,4.635,2.074,4.635,4.634v126.675
						C1338.615,1201.056,1336.54,1203.131,1333.98,1203.131z"/>
					
						<rect x="1318.918" y="1092.196" transform="matrix(1 0.0019 -0.0019 1 2.0867 -2.541)" fill="#FFFFFF" width="87.928" height="49.763"/>
					<g>
						<circle fill="#BF403A" cx="1361.836" cy="1121.65" r="13.508"/>
						<path fill="#328300" d="M1361.837,1108.143c0,0,7.185-3.775,6.244-13.148
							C1368.081,1094.994,1360.922,1100.879,1361.837,1108.143z"/>
					</g>
				</g>
				<g>
					<path fill="#D6712D" d="M1241.683,1034.065l0.059-8.809l-36.165-0.046l-0.059,8.809c-18.34,5.264-25.96,22.133-25.997,42.169
						l-0.253,135.534c-0.014,7.271,5.869,13.175,13.139,13.188l61.6,0.115c7.271,0.013,13.176-5.869,13.189-13.14l0.253-135.534
						C1267.485,1056.316,1260.003,1039.397,1241.683,1034.065z"/>
					<rect x="1202.524" y="1014.958" fill="#ECF0F1" width="41.767" height="13.389"/>
					<path fill="#ED985F" d="M1194.506,1203.131L1194.506,1203.131c-2.559,0-4.634-2.075-4.634-4.635v-126.675
						c0-2.56,2.075-4.634,4.634-4.634l0,0c2.56,0,4.635,2.074,4.635,4.634v126.675
						C1199.141,1201.056,1197.065,1203.131,1194.506,1203.131z"/>
					
						<rect x="1179.444" y="1092.196" transform="matrix(1 0.0019 -0.0019 1 2.0864 -2.2808)" fill="#FFFFFF" width="87.928" height="49.763"/>
					<g>
						<circle fill="#BF403A" cx="1222.362" cy="1121.65" r="13.508"/>
						<path fill="#328300" d="M1222.362,1108.143c0,0,7.186-3.775,6.244-13.148
							C1228.606,1094.994,1221.447,1100.879,1222.362,1108.143z"/>
					</g>
				</g>
				<g>
					<path fill="#D6712D" d="M1100.571,1035.959l0.059-8.809l-36.165-0.045l-0.059,8.809c-18.34,5.264-25.959,22.132-25.997,42.169
						l-0.253,135.533c-0.014,7.271,5.869,13.175,13.14,13.188l61.599,0.115c7.271,0.014,13.175-5.869,13.189-13.14l0.253-135.533
						C1126.374,1058.211,1118.891,1041.292,1100.571,1035.959z"/>
					<rect x="1061.413" y="1016.852" fill="#ECF0F1" width="41.767" height="13.389"/>
					<path fill="#ED985F" d="M1053.395,1205.024L1053.395,1205.024c-2.56,0-4.634-2.075-4.634-4.634v-126.675
						c0-2.56,2.075-4.635,4.634-4.635l0,0c2.559,0,4.634,2.075,4.634,4.635v126.675
						C1058.029,1202.949,1055.954,1205.024,1053.395,1205.024z"/>
					
						<rect x="1038.332" y="1094.09" transform="matrix(1 0.0019 -0.0019 1 2.0897 -2.0175)" fill="#FFFFFF" width="87.928" height="49.763"/>
					<g>
						<circle fill="#BF403A" cx="1081.251" cy="1123.545" r="13.508"/>
						<path fill="#328300" d="M1081.251,1110.036c0,0,7.185-3.774,6.245-13.148
							C1087.496,1096.888,1080.336,1102.773,1081.251,1110.036z"/>
					</g>
				</g>
				<g>
					<path fill="#D6712D" d="M1806.18,1034.065l0.059-8.809l-36.166-0.046l-0.059,8.809c-18.34,5.264-25.959,22.133-25.997,42.169
						l-0.253,135.534c-0.014,7.271,5.869,13.175,13.14,13.188l61.6,0.115c7.271,0.013,13.175-5.869,13.188-13.14l0.253-135.534
						C1831.981,1056.316,1824.499,1039.397,1806.18,1034.065z"/>
					<rect x="1767.021" y="1014.958" fill="#ECF0F1" width="41.767" height="13.389"/>
					<path fill="#ED985F" d="M1759.003,1203.131L1759.003,1203.131c-2.56,0-4.635-2.075-4.635-4.635v-126.675
						c0-2.56,2.075-4.634,4.635-4.634l0,0c2.56,0,4.635,2.074,4.635,4.634v126.675
						C1763.638,1201.056,1761.563,1203.131,1759.003,1203.131z"/>
					
						<rect x="1743.941" y="1092.196" transform="matrix(1 0.0019 -0.0019 1 2.0874 -3.3341)" fill="#FFFFFF" width="87.928" height="49.763"/>
					<g>
						<circle fill="#BF403A" cx="1786.859" cy="1121.65" r="13.508"/>
						<path fill="#328300" d="M1786.859,1108.143c0,0,7.185-3.775,6.244-13.148
							C1793.104,1094.994,1785.944,1100.879,1786.859,1108.143z"/>
					</g>
				</g>
				<g>
					<path fill="#D6712D" d="M1666.705,1034.065l0.059-8.809l-36.165-0.046l-0.06,8.809c-18.34,5.264-25.959,22.133-25.996,42.169
						l-0.254,135.534c-0.013,7.271,5.87,13.175,13.14,13.188l61.6,0.115c7.271,0.013,13.175-5.869,13.188-13.14l0.254-135.534
						C1692.508,1056.316,1685.025,1039.397,1666.705,1034.065z"/>
					<rect x="1627.547" y="1014.958" fill="#ECF0F1" width="41.767" height="13.389"/>
					<path fill="#ED985F" d="M1619.528,1203.131L1619.528,1203.131c-2.56,0-4.634-2.075-4.634-4.635v-126.675
						c0-2.56,2.074-4.634,4.634-4.634l0,0c2.56,0,4.635,2.074,4.635,4.634v126.675
						C1624.163,1201.056,1622.088,1203.131,1619.528,1203.131z"/>
					
						<rect x="1604.466" y="1092.196" transform="matrix(1 0.0019 -0.0019 1 2.0872 -3.0739)" fill="#FFFFFF" width="87.928" height="49.763"/>
					<g>
						<circle fill="#BF403A" cx="1647.385" cy="1121.65" r="13.508"/>
						<path fill="#328300" d="M1647.385,1108.143c0,0,7.186-3.775,6.244-13.148
							C1653.629,1094.994,1646.471,1100.879,1647.385,1108.143z"/>
					</g>
				</g>
				<g>
					<path fill="#D6712D" d="M1525.594,1035.959l0.059-8.809l-36.165-0.045l-0.06,8.809c-18.34,5.264-25.959,22.132-25.996,42.169
						l-0.254,135.533c-0.014,7.271,5.869,13.175,13.14,13.188l61.6,0.115c7.271,0.014,13.175-5.869,13.188-13.14l0.253-135.533
						C1551.396,1058.211,1543.914,1041.292,1525.594,1035.959z"/>
					<rect x="1486.436" y="1016.852" fill="#ECF0F1" width="41.767" height="13.389"/>
					<path fill="#ED985F" d="M1478.417,1205.024L1478.417,1205.024c-2.56,0-4.634-2.075-4.634-4.634v-126.675
						c0-2.56,2.074-4.635,4.634-4.635l0,0c2.56,0,4.635,2.075,4.635,4.635v126.675
						C1483.052,1202.949,1480.977,1205.024,1478.417,1205.024z"/>
					
						<rect x="1463.355" y="1094.09" transform="matrix(1 0.0019 -0.0019 1 2.0905 -2.8105)" fill="#FFFFFF" width="87.928" height="49.763"/>
					<g>
						<circle fill="#BF403A" cx="1506.273" cy="1123.545" r="13.508"/>
						<path fill="#328300" d="M1506.273,1110.036c0,0,7.185-3.774,6.244-13.148
							C1512.518,1096.888,1505.358,1102.773,1506.273,1110.036z"/>
					</g>
				</g>
				<g>
					<path fill="#D04C3F" d="M949.016,1034.065l0.059-8.809l-36.165-0.046l-0.059,8.809c-18.339,5.264-25.959,22.133-25.997,42.169
						l-0.253,135.534c-0.013,7.271,5.869,13.175,13.14,13.188l61.6,0.115c7.27,0.013,13.175-5.869,13.188-13.14l0.253-135.534
						C974.818,1056.316,967.336,1039.397,949.016,1034.065z"/>
					<rect x="909.857" y="1014.958" fill="#ECF0F1" width="41.767" height="13.389"/>
					<path fill="#E87D77" d="M901.839,1203.131L901.839,1203.131c-2.56,0-4.634-2.075-4.634-4.635v-126.675
						c0-2.56,2.075-4.634,4.634-4.634l0,0c2.56,0,4.634,2.074,4.634,4.634v126.675
						C906.474,1201.056,904.399,1203.131,901.839,1203.131z"/>
					
						<rect x="886.777" y="1092.196" transform="matrix(1 0.0019 -0.0019 1 2.0859 -1.7347)" fill="#FFFFFF" width="87.928" height="49.763"/>
					<g>
						<path fill="#3D1A18" d="M937.037,1109.706c0,0,3.089-5.002,6.179-5.885v1.766c0,0-5.149,3.531-6.179,5.149V1109.706z"/>
						<path fill="#D04C3F" d="M938.792,1109.54c0,0-2.834-3.972-4.948-2.428c-2.114,1.545-12.486,21.628-19.769,24.056
							c0,0,8.386,0.443,13.903-2.979C933.495,1124.768,943.74,1111.968,938.792,1109.54z"/>
					</g>
				</g>
				<g>
					<path fill="#D04C3F" d="M798.514,1034.065l0.059-8.809l-36.165-0.046l-0.059,8.809c-18.34,5.264-25.959,22.133-25.997,42.169
						l-0.253,135.534c-0.014,7.271,5.869,13.175,13.14,13.188l61.599,0.115c7.271,0.013,13.175-5.869,13.189-13.14l0.253-135.534
						C824.316,1056.316,816.833,1039.397,798.514,1034.065z"/>
					<rect x="759.355" y="1014.958" fill="#ECF0F1" width="41.767" height="13.389"/>
					<path fill="#E87D77" d="M751.337,1203.131L751.337,1203.131c-2.559,0-4.634-2.075-4.634-4.635v-126.675
						c0-2.56,2.075-4.634,4.634-4.634l0,0c2.56,0,4.635,2.074,4.635,4.634v126.675
						C755.972,1201.056,753.896,1203.131,751.337,1203.131z"/>
					
						<rect x="736.275" y="1092.196" transform="matrix(1 0.0019 -0.0019 1 2.0857 -1.4539)" fill="#FFFFFF" width="87.928" height="49.763"/>
					<g>
						<path fill="#3D1A18" d="M786.535,1109.706c0,0,3.089-5.002,6.179-5.885v1.766c0,0-5.149,3.531-6.179,5.149V1109.706z"/>
						<path fill="#D04C3F" d="M788.289,1109.54c0,0-2.834-3.972-4.948-2.428c-2.113,1.545-12.486,21.628-19.769,24.056
							c0,0,8.386,0.443,13.903-2.979S793.238,1111.968,788.289,1109.54z"/>
					</g>
				</g>
				<g>
					<path fill="#D04C3F" d="M643.159,1034.065l0.059-8.809l-36.166-0.046l-0.059,8.809c-18.34,5.264-25.959,22.133-25.997,42.169
						l-0.253,135.534c-0.014,7.271,5.869,13.175,13.139,13.188l61.6,0.115c7.271,0.013,13.175-5.869,13.189-13.14l0.253-135.534
						C668.961,1056.316,661.479,1039.397,643.159,1034.065z"/>
					<rect x="604" y="1014.958" fill="#ECF0F1" width="41.767" height="13.389"/>
					<path fill="#E87D77" d="M595.982,1203.131L595.982,1203.131c-2.559,0-4.634-2.075-4.634-4.635v-126.675
						c0-2.56,2.075-4.634,4.634-4.634l0,0c2.56,0,4.635,2.074,4.635,4.634v126.675
						C600.617,1201.056,598.542,1203.131,595.982,1203.131z"/>
					
						<rect x="580.92" y="1092.196" transform="matrix(1 0.0019 -0.0019 1 2.0854 -1.1641)" fill="#FFFFFF" width="87.928" height="49.763"/>
					<g>
						<path fill="#3D1A18" d="M631.179,1109.706c0,0,3.09-5.002,6.179-5.885v1.766c0,0-5.149,3.531-6.179,5.149V1109.706z"/>
						<path fill="#D04C3F" d="M632.934,1109.54c0,0-2.834-3.972-4.948-2.428c-2.114,1.545-12.486,21.628-19.769,24.056
							c0,0,8.386,0.443,13.903-2.979S637.882,1111.968,632.934,1109.54z"/>
					</g>
				</g>
				<g>
					<path fill="#D04C3F" d="M492.656,1034.065l0.059-8.809l-36.166-0.046l-0.059,8.809c-18.34,5.264-25.96,22.133-25.997,42.169
						l-0.253,135.534c-0.013,7.271,5.869,13.175,13.14,13.188l61.6,0.115c7.27,0.013,13.175-5.869,13.188-13.14l0.253-135.534
						C518.459,1056.316,510.977,1039.397,492.656,1034.065z"/>
					<rect x="453.498" y="1014.958" fill="#ECF0F1" width="41.767" height="13.389"/>
					<path fill="#E87D77" d="M445.48,1203.131L445.48,1203.131c-2.56,0-4.634-2.075-4.634-4.635v-126.675
						c0-2.56,2.075-4.634,4.634-4.634l0,0c2.56,0,4.634,2.074,4.634,4.634v126.675
						C450.114,1201.056,448.04,1203.131,445.48,1203.131z"/>
					
						<rect x="430.418" y="1092.196" transform="matrix(1 0.0019 -0.0019 1 2.0851 -0.8832)" fill="#FFFFFF" width="87.928" height="49.763"/>
					<g>
						<path fill="#3D1A18" d="M480.677,1109.706c0,0,3.09-5.002,6.179-5.885v1.766c0,0-5.149,3.531-6.179,5.149V1109.706z"/>
						<path fill="#D04C3F" d="M482.432,1109.54c0,0-2.834-3.972-4.948-2.428c-2.114,1.545-12.486,21.628-19.769,24.056
							c0,0,8.386,0.443,13.903-2.979C477.136,1124.768,487.38,1111.968,482.432,1109.54z"/>
					</g>
				</g>
				<g>
					<path fill="#D04C3F" d="M324.388,1034.065l0.059-8.809l-36.166-0.046l-0.059,8.809c-18.339,5.264-25.959,22.133-25.997,42.169
						l-0.253,135.534c-0.013,7.271,5.87,13.175,13.14,13.188l61.6,0.115c7.271,0.013,13.175-5.869,13.188-13.14l0.253-135.534
						C350.191,1056.316,342.708,1039.397,324.388,1034.065z"/>
					<rect x="285.23" y="1014.958" fill="#ECF0F1" width="41.766" height="13.389"/>
					<path fill="#E87D77" d="M277.212,1203.131L277.212,1203.131c-2.56,0-4.634-2.075-4.634-4.635v-126.675
						c0-2.56,2.075-4.634,4.634-4.634l0,0c2.56,0,4.634,2.074,4.634,4.634v126.675
						C281.846,1201.056,279.771,1203.131,277.212,1203.131z"/>
					
						<rect x="262.15" y="1092.196" transform="matrix(1 0.0019 -0.0019 1 2.0849 -0.5692)" fill="#FFFFFF" width="87.927" height="49.763"/>
					<g>
						<path fill="#3D1A18" d="M312.409,1109.706c0,0,3.09-5.002,6.179-5.885v1.766c0,0-5.149,3.531-6.179,5.149V1109.706z"/>
						<path fill="#D04C3F" d="M314.164,1109.54c0,0-2.834-3.972-4.948-2.428c-2.114,1.545-12.486,21.628-19.769,24.056
							c0,0,8.386,0.443,13.903-2.979C308.868,1124.768,319.112,1111.968,314.164,1109.54z"/>
					</g>
				</g>
				<rect x="100.208" y="186.676" fill="#FFFFFF" width="52.438" height="1405.378"/>
				<rect x="1925.283" y="186.676" fill="#FFFFFF" width="52.438" height="1405.378"/>
				<rect x="100.208" y="186.676" fill="#EDAE00" width="1877.512" height="52.438"/>
				<rect x="100.208" y="547.604" fill="#FFFFFF" width="1877.512" height="52.438"/>
				<rect x="100.208" y="908.532" fill="#FFFFFF" width="1877.512" height="52.438"/>
				<rect x="126.428" y="1252.412" fill="#E4EAEA" width="1825.074" height="339.644"/>
				<rect x="293.538" y="1438.442" fill="#24566D" width="1489.235" height="153.613"/>
				<g>
					<rect x="1778.149" y="686.504" fill="#C2312E" width="29.597" height="17.209"/>
					<rect x="1743.895" y="695.108" fill="#F6F8F7" width="98.106" height="213.423"/>
					<rect x="1812.871" y="695.108" fill="#DBDBDB" width="29.13" height="213.423"/>
					<rect x="1743.895" y="827.349" fill="#C2312E" width="98.106" height="17.209"/>
					<g>
						<g>
							<path fill="#A62430" d="M1793.188,806.133L1793.188,806.133c-12.036,0-21.793-15.279-21.793-27.315l0,0
								c0-12.036,9.757-21.793,21.793-21.793l0,0c12.036,0,21.793,9.757,21.793,21.793l0,0
								C1814.981,790.854,1805.225,806.133,1793.188,806.133z"/>
						</g>
						<polygon fill="#609811" points="1798.759,756.99 1801.134,751.493 1795.06,754.833 1793.188,748 1791.317,754.833 
							1785.243,751.493 1787.618,756.99 1780.839,757.567 1793.188,759.997 1805.538,757.567 						"/>
					</g>
				</g>
				<g>
					<rect x="1619.078" y="686.504" fill="#C2312E" width="29.597" height="17.209"/>
					<rect x="1584.823" y="695.108" fill="#F6F8F7" width="98.106" height="213.423"/>
					<rect x="1653.799" y="695.108" fill="#DBDBDB" width="29.131" height="213.423"/>
					<rect x="1584.823" y="827.349" fill="#C2312E" width="98.106" height="17.209"/>
					<g>
						<g>
							<path fill="#A62430" d="M1634.117,806.133L1634.117,806.133c-12.036,0-21.793-15.279-21.793-27.315l0,0
								c0-12.036,9.757-21.793,21.793-21.793l0,0c12.036,0,21.793,9.757,21.793,21.793l0,0
								C1655.91,790.854,1646.153,806.133,1634.117,806.133z"/>
						</g>
						<polygon fill="#609811" points="1639.688,756.99 1642.063,751.493 1635.988,754.833 1634.117,748 1632.246,754.833 
							1626.172,751.493 1628.547,756.99 1621.768,757.567 1634.117,759.997 1646.467,757.567 						"/>
					</g>
				</g>
				<g>
					<rect x="1458.984" y="686.504" fill="#C2312E" width="29.597" height="17.209"/>
					<rect x="1424.729" y="695.108" fill="#F6F8F7" width="98.106" height="213.423"/>
					<rect x="1493.705" y="695.108" fill="#DBDBDB" width="29.131" height="213.423"/>
					<rect x="1424.729" y="827.349" fill="#C2312E" width="98.106" height="17.209"/>
					<g>
						<g>
							<path fill="#A62430" d="M1474.023,806.133L1474.023,806.133c-12.036,0-21.793-15.279-21.793-27.315l0,0
								c0-12.036,9.757-21.793,21.793-21.793l0,0c12.036,0,21.793,9.757,21.793,21.793l0,0
								C1495.816,790.854,1486.06,806.133,1474.023,806.133z"/>
						</g>
						<polygon fill="#609811" points="1479.594,756.99 1481.969,751.493 1475.895,754.833 1474.023,748 1472.152,754.833 
							1466.078,751.493 1468.453,756.99 1461.674,757.567 1474.023,759.997 1486.373,757.567 						"/>
					</g>
				</g>
				<g>
					<rect x="1290.456" y="686.504" fill="#C2312E" width="29.598" height="17.209"/>
					<rect x="1256.201" y="695.108" fill="#F6F8F7" width="98.107" height="213.423"/>
					<rect x="1325.178" y="695.108" fill="#DBDBDB" width="29.131" height="213.423"/>
					<rect x="1256.201" y="827.349" fill="#C2312E" width="98.107" height="17.209"/>
					<g>
						<g>
							<path fill="#A62430" d="M1305.496,806.133L1305.496,806.133c-12.036,0-21.794-15.279-21.794-27.315l0,0
								c0-12.036,9.758-21.793,21.794-21.793l0,0c12.036,0,21.793,9.757,21.793,21.793l0,0
								C1327.289,790.854,1317.532,806.133,1305.496,806.133z"/>
						</g>
						<polygon fill="#609811" points="1311.066,756.99 1313.441,751.493 1307.367,754.833 1305.496,748 1303.625,754.833 
							1297.55,751.493 1299.926,756.99 1293.146,757.567 1305.496,759.997 1317.846,757.567 						"/>
					</g>
				</g>
				<g>
					<rect x="1131.385" y="686.504" fill="#C2312E" width="29.597" height="17.209"/>
					<rect x="1097.13" y="695.108" fill="#F6F8F7" width="98.107" height="213.423"/>
					<rect x="1166.106" y="695.108" fill="#DBDBDB" width="29.131" height="213.423"/>
					<rect x="1097.13" y="827.349" fill="#C2312E" width="98.107" height="17.209"/>
					<g>
						<g>
							<path fill="#A62430" d="M1146.425,806.133L1146.425,806.133c-12.037,0-21.794-15.279-21.794-27.315l0,0
								c0-12.036,9.757-21.793,21.793-21.793h0.001c12.036,0,21.793,9.757,21.793,21.793l0,0
								C1168.218,790.854,1158.461,806.133,1146.425,806.133z"/>
						</g>
						<polygon fill="#609811" points="1151.995,756.99 1154.37,751.493 1148.296,754.833 1146.424,748 1144.553,754.833 
							1138.479,751.493 1140.854,756.99 1134.075,757.567 1146.424,759.997 1158.773,757.567 						"/>
					</g>
				</g>
				<g>
					<rect x="959.982" y="686.504" fill="#C2312E" width="29.597" height="17.209"/>
					<rect x="925.728" y="695.108" fill="#F6F8F7" width="98.107" height="213.423"/>
					<rect x="994.704" y="695.108" fill="#DBDBDB" width="29.13" height="213.423"/>
					<rect x="925.728" y="827.349" fill="#C2312E" width="98.107" height="17.209"/>
					<g>
						<g>
							<path fill="#A62430" d="M975.021,806.133L975.021,806.133c-12.036,0-21.793-15.279-21.793-27.315l0,0
								c0-12.036,9.757-21.793,21.793-21.793l0,0c12.036,0,21.793,9.757,21.793,21.793l0,0
								C996.815,790.854,987.058,806.133,975.021,806.133z"/>
						</g>
						<polygon fill="#609811" points="980.592,756.99 982.967,751.493 976.893,754.833 975.021,748 973.15,754.833 967.076,751.493 
							969.451,756.99 962.672,757.567 975.021,759.997 987.371,757.567 						"/>
					</g>
				</g>
				<g>
					<rect x="780.423" y="686.504" fill="#FEC52E" width="29.597" height="17.209"/>
					<rect x="746.168" y="695.108" fill="#F6F8F7" width="98.107" height="213.423"/>
					<rect x="815.145" y="695.108" fill="#DBDBDB" width="29.131" height="213.423"/>
					<rect x="746.168" y="827.349" fill="#FEC52E" width="98.107" height="17.209"/>
					<g>
						<path fill="#F3AE2D" d="M796.164,813.166h-1.377c-11.736,0-21.25-9.514-21.25-21.25v-14.287
							c0-9.738,7.894-17.632,17.631-17.632h8.614c9.738,0,17.632,7.894,17.632,17.632v14.287
							C817.414,803.652,807.9,813.166,796.164,813.166z"/>
						<path fill="#FEC52E" d="M791.819,760.005c-10.053-0.034-18.23,8.089-18.264,18.142l-0.044,13.027
							c-0.02,6.037,2.402,11.509,6.333,15.489c1.036,0.154,2.086,0.261,3.164,0.265c12.117,0.041,21.972-9.749,22.012-21.865
							l0.043-13.027c0.016-4.563-1.662-8.729-4.425-11.934c-0.447-0.034-0.893-0.071-1.349-0.073L791.819,760.005z"/>
					</g>
				</g>
				<g>
					<rect x="606.433" y="686.504" fill="#FEC52E" width="29.598" height="17.209"/>
					<rect x="572.178" y="695.108" fill="#F6F8F7" width="98.107" height="213.423"/>
					<rect x="641.155" y="695.108" fill="#DBDBDB" width="29.131" height="213.423"/>
					<rect x="572.178" y="827.349" fill="#FEC52E" width="98.107" height="17.209"/>
					<g>
						<path fill="#F3AE2D" d="M622.174,813.166h-1.377c-11.736,0-21.25-9.514-21.25-21.25v-14.287
							c0-9.738,7.894-17.632,17.632-17.632h8.614c9.738,0,17.632,7.894,17.632,17.632v14.287
							C643.424,803.652,633.911,813.166,622.174,813.166z"/>
						<path fill="#FEC52E" d="M617.829,760.005c-10.054-0.034-18.23,8.089-18.265,18.142l-0.043,13.027
							c-0.02,6.037,2.402,11.509,6.333,15.489c1.035,0.154,2.086,0.261,3.164,0.265c12.117,0.041,21.972-9.749,22.012-21.865
							l0.043-13.027c0.016-4.563-1.662-8.729-4.425-11.934c-0.447-0.034-0.893-0.071-1.349-0.073L617.829,760.005z"/>
					</g>
				</g>
				<g>
					<rect x="422.35" y="686.504" fill="#FEC52E" width="29.597" height="17.209"/>
					<rect x="388.095" y="695.108" fill="#F6F8F7" width="98.107" height="213.423"/>
					<rect x="457.071" y="695.108" fill="#DBDBDB" width="29.131" height="213.423"/>
					<rect x="388.095" y="827.349" fill="#FEC52E" width="98.107" height="17.209"/>
					<g>
						<path fill="#F3AE2D" d="M438.091,813.166h-1.378c-11.736,0-21.25-9.514-21.25-21.25v-14.287
							c0-9.738,7.894-17.632,17.631-17.632h8.614c9.738,0,17.632,7.894,17.632,17.632v14.287
							C459.341,803.652,449.827,813.166,438.091,813.166z"/>
						<path fill="#FEC52E" d="M433.746,760.005c-10.053-0.034-18.23,8.089-18.264,18.142l-0.044,13.027
							c-0.02,6.037,2.402,11.509,6.333,15.489c1.036,0.154,2.086,0.261,3.164,0.265c12.117,0.041,21.972-9.749,22.012-21.865
							l0.043-13.027c0.016-4.563-1.662-8.729-4.425-11.934c-0.447-0.034-0.893-0.071-1.349-0.073L433.746,760.005z"/>
					</g>
				</g>
				<g>
					<rect x="248.36" y="686.504" fill="#FEC52E" width="29.598" height="17.209"/>
					<rect x="214.105" y="695.108" fill="#F6F8F7" width="98.107" height="213.423"/>
					<rect x="283.082" y="695.108" fill="#DBDBDB" width="29.131" height="213.423"/>
					<rect x="214.105" y="827.349" fill="#FEC52E" width="98.107" height="17.209"/>
					<g>
						<path fill="#F3AE2D" d="M264.101,813.166h-1.377c-11.736,0-21.25-9.514-21.25-21.25v-14.287
							c0-9.738,7.894-17.632,17.632-17.632h8.614c9.738,0,17.632,7.894,17.632,17.632v14.287
							C285.351,803.652,275.837,813.166,264.101,813.166z"/>
						<path fill="#FEC52E" d="M259.756,760.005c-10.054-0.034-18.23,8.089-18.265,18.142l-0.043,13.027
							c-0.02,6.037,2.402,11.509,6.333,15.489c1.035,0.154,2.086,0.261,3.164,0.265c12.117,0.041,21.972-9.749,22.012-21.865
							L273,772.036c0.016-4.563-1.662-8.729-4.425-11.934c-0.447-0.034-0.893-0.071-1.349-0.073L259.756,760.005z"/>
					</g>
				</g>
				<g>
					<rect x="243.403" y="325.576" fill="#5B9B13" width="29.597" height="17.209"/>
					<rect x="209.148" y="334.181" fill="#F6F8F7" width="98.107" height="213.423"/>
					<rect x="278.125" y="334.181" fill="#DBDBDB" width="29.13" height="213.423"/>
					<rect x="209.148" y="466.421" fill="#5B9B13" width="98.107" height="17.209"/>
					<g>
						<path fill="#88CA34" d="M256.625,403.978c0,0-20.495-7.825-20.237,17.38c0,0-3.263,27.662,20.237,25.214V403.978z"/>
						<path fill="#5B9B13" d="M256.625,403.978c0,0,20.495-7.825,20.237,17.38c0,0,3.263,27.662-20.237,25.214V403.978z"/>
						<path fill="#609811" d="M256.625,403.978c0,0,2.113-11.913,10.196-16.482C266.821,387.495,267.723,401.204,256.625,403.978z"
							/>
					</g>
				</g>
				<g>
					<rect x="416.416" y="325.576" fill="#5B9B13" width="29.597" height="17.209"/>
					<rect x="382.161" y="334.181" fill="#F6F8F7" width="98.107" height="213.423"/>
					<rect x="451.137" y="334.181" fill="#DBDBDB" width="29.131" height="213.423"/>
					<rect x="382.161" y="466.421" fill="#5B9B13" width="98.107" height="17.209"/>
					<g>
						<path fill="#88CA34" d="M429.638,403.978c0,0-20.495-7.825-20.237,17.38c0,0-3.263,27.662,20.237,25.214V403.978z"/>
						<path fill="#5B9B13" d="M429.638,403.978c0,0,20.494-7.825,20.237,17.38c0,0,3.263,27.662-20.237,25.214V403.978z"/>
						<path fill="#609811" d="M429.638,403.978c0,0,2.113-11.913,10.195-16.482C439.833,387.495,440.735,401.204,429.638,403.978z"
							/>
					</g>
				</g>
				<g>
					<rect x="602.047" y="325.576" fill="#5B9B13" width="29.597" height="17.209"/>
					<rect x="567.792" y="334.181" fill="#F6F8F7" width="98.107" height="213.423"/>
					<rect x="636.769" y="334.181" fill="#DBDBDB" width="29.131" height="213.423"/>
					<rect x="567.792" y="466.421" fill="#5B9B13" width="98.107" height="17.209"/>
					<g>
						<path fill="#88CA34" d="M615.27,403.978c0,0-20.495-7.825-20.237,17.38c0,0-3.263,27.662,20.237,25.214V403.978z"/>
						<path fill="#5B9B13" d="M615.27,403.978c0,0,20.494-7.825,20.237,17.38c0,0,3.263,27.662-20.237,25.214V403.978z"/>
						<path fill="#609811" d="M615.27,403.978c0,0,2.113-11.913,10.195-16.482C625.465,387.495,626.367,401.204,615.27,403.978z"/>
					</g>
				</g>
				<g>
					<rect x="775.059" y="325.576" fill="#5B9B13" width="29.598" height="17.209"/>
					<rect x="740.804" y="334.181" fill="#F6F8F7" width="98.107" height="213.423"/>
					<rect x="809.781" y="334.181" fill="#DBDBDB" width="29.131" height="213.423"/>
					<rect x="740.804" y="466.421" fill="#5B9B13" width="98.107" height="17.209"/>
					<g>
						<path fill="#88CA34" d="M788.281,403.978c0,0-20.495-7.825-20.237,17.38c0,0-3.263,27.662,20.237,25.214V403.978z"/>
						<path fill="#5B9B13" d="M788.281,403.978c0,0,20.495-7.825,20.237,17.38c0,0,3.263,27.662-20.237,25.214V403.978z"/>
						<path fill="#609811" d="M788.281,403.978c0,0,2.113-11.913,10.196-16.482C798.477,387.495,799.378,401.204,788.281,403.978z"
							/>
					</g>
				</g>
				<g>
					<rect x="963.665" y="325.576" fill="#5B9B13" width="29.597" height="17.209"/>
					<rect x="929.41" y="334.181" fill="#F6F8F7" width="98.107" height="213.423"/>
					<rect x="998.386" y="334.181" fill="#DBDBDB" width="29.13" height="213.423"/>
					<rect x="929.41" y="466.421" fill="#5B9B13" width="98.107" height="17.209"/>
					<g>
						<path fill="#88CA34" d="M976.887,403.978c0,0-20.495-7.825-20.237,17.38c0,0-3.263,27.662,20.237,25.214V403.978z"/>
						<path fill="#5B9B13" d="M976.887,403.978c0,0,20.494-7.825,20.237,17.38c0,0,3.263,27.662-20.237,25.214V403.978z"/>
						<path fill="#609811" d="M976.887,403.978c0,0,2.113-11.913,10.195-16.482C987.082,387.495,987.984,401.204,976.887,403.978z"
							/>
					</g>
				</g>
				<g>
					<rect x="1131.385" y="325.576" fill="#FCD329" width="29.597" height="17.209"/>
					<rect x="1097.13" y="334.181" fill="#F6F8F7" width="98.107" height="213.423"/>
					<rect x="1166.106" y="334.181" fill="#DBDBDB" width="29.131" height="213.423"/>
					<g>
						<path fill="#D8B213" d="M1136.259,386.817c0,0-31.342,49.41,10.381,61.661c0,0,15.828,6.762,24.149,0.171l-0.14-2.745
							c0,0-45.335-6.205-35.128-52.598L1136.259,386.817z"/>
						<path fill="#FCD329" d="M1170.727,447.401l-0.076-1.497c0,0-45.335-6.205-35.128-52.598l0.342-3.012
							c-6.835,13.847-18.354,45.63,13.965,55.118C1149.829,445.412,1162.112,450.659,1170.727,447.401z"/>
						<path fill="#67552D" d="M1133.991,390.795l1.409,3.084l3.654-6.375c0.068-0.364-0.142-0.723-0.492-0.843l-1.611-0.551
							c-0.358-0.123-0.752,0.043-0.915,0.386L1133.991,390.795z"/>
						<path fill="#67552D" d="M1170.65,445.904l0.14,2.745l2.553-1.366c0.3-0.16,0.436-0.516,0.32-0.835l-0.133-0.367
							c-0.108-0.301-0.411-0.486-0.729-0.446L1170.65,445.904z"/>
					</g>
					<rect x="1097.13" y="466.421" fill="#FCD329" width="98.107" height="17.209"/>
				</g>
				<g>
					<rect x="1290.456" y="325.576" fill="#FCD329" width="29.598" height="17.209"/>
					<rect x="1256.201" y="334.181" fill="#F6F8F7" width="98.107" height="213.423"/>
					<rect x="1325.178" y="334.181" fill="#DBDBDB" width="29.131" height="213.423"/>
					<g>
						<path fill="#D8B213" d="M1295.33,386.817c0,0-31.342,49.41,10.383,61.661c0,0,15.827,6.762,24.148,0.171l-0.14-2.745
							c0,0-45.335-6.205-35.128-52.598L1295.33,386.817z"/>
						<path fill="#FCD329" d="M1329.798,447.401l-0.076-1.497c0,0-45.335-6.205-35.128-52.598l0.342-3.012
							c-6.835,13.847-18.354,45.63,13.965,55.118C1308.9,445.412,1321.184,450.659,1329.798,447.401z"/>
						<path fill="#67552D" d="M1293.063,390.795l1.409,3.084l3.654-6.375c0.068-0.364-0.142-0.723-0.492-0.843l-1.611-0.551
							c-0.358-0.123-0.752,0.043-0.915,0.386L1293.063,390.795z"/>
						<path fill="#67552D" d="M1329.722,445.904l0.14,2.745l2.553-1.366c0.3-0.16,0.436-0.516,0.32-0.835l-0.133-0.367
							c-0.108-0.301-0.411-0.486-0.729-0.446L1329.722,445.904z"/>
					</g>
					<rect x="1256.201" y="466.421" fill="#FCD329" width="98.107" height="17.209"/>
				</g>
				<g>
					<rect x="1457.024" y="325.576" fill="#FCD329" width="29.598" height="17.209"/>
					<rect x="1422.77" y="334.181" fill="#F6F8F7" width="98.107" height="213.423"/>
					<rect x="1491.746" y="334.181" fill="#DBDBDB" width="29.131" height="213.423"/>
					<g>
						<path fill="#D8B213" d="M1461.898,386.817c0,0-31.342,49.41,10.382,61.661c0,0,15.828,6.762,24.149,0.171l-0.14-2.745
							c0,0-45.335-6.205-35.128-52.598L1461.898,386.817z"/>
						<path fill="#FCD329" d="M1496.366,447.401l-0.076-1.497c0,0-45.335-6.205-35.128-52.598l0.342-3.012
							c-6.836,13.847-18.354,45.63,13.965,55.118C1475.469,445.412,1487.752,450.659,1496.366,447.401z"/>
						<path fill="#67552D" d="M1459.631,390.795l1.409,3.084l3.654-6.375c0.067-0.364-0.142-0.723-0.492-0.843l-1.611-0.551
							c-0.358-0.123-0.753,0.043-0.915,0.386L1459.631,390.795z"/>
						<path fill="#67552D" d="M1496.29,445.904l0.14,2.745l2.553-1.366c0.299-0.16,0.436-0.516,0.32-0.835l-0.133-0.367
							c-0.108-0.301-0.411-0.486-0.729-0.446L1496.29,445.904z"/>
					</g>
					<rect x="1422.77" y="466.421" fill="#FCD329" width="98.107" height="17.209"/>
				</g>
				<g>
					<rect x="1616.096" y="325.576" fill="#FCD329" width="29.598" height="17.209"/>
					<rect x="1581.841" y="334.181" fill="#F6F8F7" width="98.107" height="213.423"/>
					<rect x="1650.817" y="334.181" fill="#DBDBDB" width="29.131" height="213.423"/>
					<g>
						<path fill="#D8B213" d="M1620.97,386.817c0,0-31.342,49.41,10.382,61.661c0,0,15.828,6.762,24.149,0.171l-0.14-2.745
							c0,0-45.335-6.205-35.128-52.598L1620.97,386.817z"/>
						<path fill="#FCD329" d="M1655.438,447.401l-0.076-1.497c0,0-45.335-6.205-35.128-52.598l0.342-3.012
							c-6.836,13.847-18.354,45.63,13.965,55.118C1634.54,445.412,1646.823,450.659,1655.438,447.401z"/>
						<path fill="#67552D" d="M1618.702,390.795l1.409,3.084l3.654-6.375c0.068-0.364-0.142-0.723-0.492-0.843l-1.611-0.551
							c-0.358-0.123-0.752,0.043-0.915,0.386L1618.702,390.795z"/>
						<path fill="#67552D" d="M1655.361,445.904l0.14,2.745l2.553-1.366c0.3-0.16,0.436-0.516,0.32-0.835l-0.133-0.367
							c-0.108-0.301-0.411-0.486-0.729-0.446L1655.361,445.904z"/>
					</g>
					<rect x="1581.841" y="466.421" fill="#FCD329" width="98.107" height="17.209"/>
				</g>
				<g>
					<rect x="1778.39" y="325.576" fill="#FCD329" width="29.598" height="17.209"/>
					<rect x="1744.135" y="334.181" fill="#F6F8F7" width="98.107" height="213.423"/>
					<rect x="1813.111" y="334.181" fill="#DBDBDB" width="29.131" height="213.423"/>
					<g>
						<path fill="#D8B213" d="M1783.264,386.817c0,0-31.342,49.41,10.383,61.661c0,0,15.827,6.762,24.148,0.171l-0.14-2.745
							c0,0-45.335-6.205-35.128-52.598L1783.264,386.817z"/>
						<path fill="#FCD329" d="M1817.731,447.401l-0.076-1.497c0,0-45.335-6.205-35.128-52.598l0.342-3.012
							c-6.836,13.847-18.354,45.63,13.965,55.118C1796.834,445.412,1809.117,450.659,1817.731,447.401z"/>
						<path fill="#67552D" d="M1780.996,390.795l1.409,3.084l3.654-6.375c0.067-0.364-0.142-0.723-0.492-0.843l-1.611-0.551
							c-0.358-0.123-0.753,0.043-0.915,0.386L1780.996,390.795z"/>
						<path fill="#67552D" d="M1817.655,445.904l0.14,2.745l2.553-1.366c0.299-0.16,0.436-0.516,0.32-0.835l-0.133-0.367
							c-0.108-0.301-0.411-0.486-0.729-0.446L1817.655,445.904z"/>
					</g>
					<rect x="1744.135" y="466.421" fill="#FCD329" width="98.107" height="17.209"/>
				</g>
				<rect x="1324.55" y="547.604" fill="#FDEA45" width="118.432" height="75.119"/>
				<rect x="461.64" y="547.604" fill="#FDEA45" width="118.432" height="75.119"/>
				<rect x="1324.55" y="908.532" fill="#FDEA45" width="118.432" height="75.119"/>
				<rect x="1324.55" y="1226.193" fill="#FDEA45" width="118.432" height="75.119"/>
				<rect x="461.64" y="908.532" fill="#FDEA45" width="118.432" height="75.119"/>
				<rect x="461.64" y="1226.193" fill="#FDEA45" width="118.432" height="75.119"/>
			</g>
		</g>
		<g>
			<path fill="#6D9092" d="M2272,1217.448h-3.709v-135.731h-55.582v135.731h-35.346v135.731h-41.941v-320.344H2272v-38.103h-136.578
				V674.391H2272v-38.103h-9.081h-127.497V315.944H2272v-76.205h-136.578h-65.81v1113.44v111.485v131.242H2272V1217.448z
				 M2250.123,1353.18h-17.177v-135.731h17.177V1353.18z"/>
			<rect x="2069.612" y="239.739" fill="#6D9092" width="202.388" height="76.205"/>
			<rect x="2069.612" y="315.944" fill="#FFFFFF" width="65.81" height="1037.235"/>
			<rect x="2177.363" y="1217.448" fill="#FF7453" width="55.583" height="135.731"/>
			<rect x="2250.123" y="1217.448" fill="#FF7453" width="21.877" height="135.731"/>
			<rect x="2212.709" y="1081.717" fill="#FF7453" width="55.582" height="135.731"/>
		</g>
	</g>
	<rect id="floor" y="1592.538" fill="#FFB64D" width="2271.75" height="279.462"/>
	<g id="shopping_guy">
		<ellipse opacity="0.5" fill="#303030" cx="738.989" cy="1748.744" rx="585.45" ry="37.109"/>
		<g>
			<g>
				<circle fill="#4F4F51" cx="1219.723" cy="1726.784" r="38.213"/>
				<path fill="#858993" d="M1222.344,1740.741h-5.242c-9.314,0-16.866-7.552-16.866-16.866v-45.938h38.975v45.938
					C1239.21,1733.189,1231.659,1740.741,1222.344,1740.741z"/>
			</g>
			<g>
				<path fill="#9EA1B2" d="M1261.846,1697.91H774.047c-16.005,0-29.628-11.442-32.392-27.208l-7.29-41.614
					c-0.025-0.146-0.047-0.291-0.066-0.438l-4.308-32.757c-0.749-5.694,3.26-10.917,8.953-11.665
					c5.692-0.747,10.917,3.258,11.666,8.953l4.279,32.536l7.251,41.396c1.016,5.794,6.023,10,11.906,10h487.798
					c5.742,0,10.398,4.655,10.398,10.398S1267.588,1697.91,1261.846,1697.91z"/>
			</g>
			<g>
				<circle fill="#4F4F51" cx="768.777" cy="1726.784" r="38.214"/>
				<path fill="#858993" d="M771.398,1740.741h-5.242c-9.315,0-16.866-7.552-16.866-16.866v-45.938h38.975v45.938
					C788.265,1733.189,780.713,1740.741,771.398,1740.741z"/>
			</g>
			<g>
				<path fill="#9EA1B2" d="M1253.297,1417.797c-0.396,0-0.795-0.022-1.197-0.069l-419.725-48.196
					c-5.706-0.655-9.799-5.812-9.145-11.517c0.656-5.706,5.811-9.805,11.517-9.145l419.724,48.196
					c5.706,0.655,9.799,5.812,9.145,11.517C1263.006,1413.886,1258.51,1417.797,1253.297,1417.797z"/>
			</g>
			<g>
				<path fill="#9EA1B2" d="M1241.879,1480.564c-0.397,0-0.797-0.023-1.199-0.069l-392.003-45.013
					c-5.706-0.655-9.799-5.812-9.145-11.517c0.655-5.707,5.829-9.804,11.517-9.145l392.002,45.013
					c5.706,0.655,9.8,5.812,9.146,11.517C1251.587,1476.653,1247.091,1480.564,1241.879,1480.564z"/>
			</g>
			<g>
				<path fill="#9EA1B2" d="M1228.258,1555.424c-0.396,0-0.795-0.022-1.198-0.069l-358.941-41.217
					c-5.706-0.655-9.799-5.812-9.145-11.517c0.655-5.705,5.813-9.799,11.517-9.145l358.941,41.217
					c5.706,0.655,9.799,5.812,9.145,11.517C1237.967,1551.513,1233.47,1555.424,1228.258,1555.424z"/>
			</g>
			<g>
				<path fill="#9EA1B2" d="M1220.659,1597.121H889.8c-4.782,0-8.947-3.261-10.095-7.903l-104.833-424.119
					c-5.649-22.904-21.01-38.29-38.224-38.29h-12.516c-5.743,0-10.398-4.655-10.398-10.398s4.655-10.398,10.398-10.398h12.516
					c26.958,0,50.432,21.741,58.415,54.102l26.092,105.562l444.034,75.641c2.738,0.466,5.177,2.01,6.77,4.286
					c1.595,2.274,2.212,5.093,1.715,7.826l-42.785,235.156C1229.99,1593.527,1225.685,1597.121,1220.659,1597.121z M897.94,1576.324
					h314.041l39.35-216.273l-424.732-72.352L897.94,1576.324z"/>
			</g>
		</g>
		<path fill="#FD5145" d="M506.76,1002.314c26.22-1.075,49.085-8.023,68.701-20.667l-37.155-132.16
			c-8.449-28.084-38.064-44.001-66.148-35.553l-2.847,0.856c-8.286,2.493-12.982,11.23-10.49,19.516L506.76,1002.314z"/>
		<path fill="#F49671" d="M527.323,1720.558l-21.971,3.567c-11.721,1.902-22.765-6.057-24.667-17.777l-7.864-48.435l64.416-10.458
			l7.863,48.435C547.002,1707.61,539.043,1718.654,527.323,1720.558z"/>
		<path fill="#F49671" d="M270.447,1681.864l-18.993-11.606c-10.132-6.191-13.327-19.424-7.136-29.556l32.183-52.669l55.686,34.025
			l-32.183,52.67C293.813,1684.86,280.58,1688.055,270.447,1681.864z"/>
		<path fill="#4A68A4" d="M317.549,1650.263l-57.435-36.397l110.833-176.269c22.65-36.021,34.81-77.645,35.113-120.195
			l1.104-154.392h110.33l-25.122,189.768c-4.193,31.674-15.687,61.942-33.574,88.418L317.549,1650.263z"/>
		<path fill="#587DC4" d="M544.166,1671.881l-73.05,11.855l-43.987-260.125c-2.992-17.693-8.629-34.835-16.724-50.849
			l-19.966-39.501l-28.342-40.432c-23.088-32.938-39.517-70.069-48.362-109.308l-2.532-11.23h124.445l63.96,194.336
			c5.152,12.483,8.633,25.592,10.354,38.986L544.166,1671.881z"/>
		<path fill="#BDD2FD" d="M517.494,1172.292H311.203V832.697c0-11.613,9.414-21.027,21.027-21.027h133.655
			c28.503,0,51.609,23.106,51.609,51.609V1172.292z"/>
		<path fill="#FFAA83" d="M459.819,811.719c-0.65-0.021-1.298-0.049-1.953-0.049l0,0c-7.182,0-13-5.825-12.985-13.007
			c0.071-34.638,0.109-126.446,0.109-126.446h-65.205c0,0,0.038,91.808,0.109,126.446c0.015,7.183-5.803,13.007-12.985,13.007
			h-1.915c-2.565,3.132-3.986,6.572-3.986,10.183c0,14.543,23.003,26.333,51.379,26.333l0,0h0c28.376,0,51.38-11.79,51.38-26.333
			C463.768,818.261,462.359,814.839,459.819,811.719z"/>
		<path fill="#A34D50" d="M451.163,548.36c-111.9-10.398-124.032,89.542-124.032,89.542l8.252,59.884
			c3.895,28.26,27.808,49.463,56.331,49.947l92.163,1.562c19.832,0,35.908-16.077,35.908-35.908v-51.091
			C519.786,662.296,563.063,558.758,451.163,548.36z"/>
		<path fill="#873E44" d="M355.883,734.509c9.812,8.097,22.3,12.995,35.832,13.225l92.163,1.562
			c10.532,0,20.006-4.535,26.574-11.758V681.25H355.883V734.509z"/>
		<path fill="#EC866D" d="M381.495,694.44v41.946c0,39.27,26.18,71.104,58.475,71.104l0,0c1.557,0,3.1-0.076,4.627-0.221V672.217
			h-60.185C382.522,679.209,381.495,686.679,381.495,694.44z"/>
		<path fill="#FFAA83" d="M443.077,795.52L443.077,795.52c-42.365,0-76.709-36.102-76.709-80.635v-47.569
			c0-44.534,34.344-80.635,76.708-80.635h0c42.365,0,76.708,36.102,76.708,80.635v47.569
			C519.786,759.418,485.442,795.52,443.077,795.52z"/>
		<path fill="#A34D50" d="M440.508,682.321L440.508,682.321c-2.684,0-4.859-1.681-4.859-3.753v-4.089
			c0-2.073,2.176-3.753,4.859-3.753l0,0c2.684,0,4.859,1.681,4.859,3.753v4.089C445.367,680.64,443.191,682.321,440.508,682.321z"/>
		<path fill="#A34D50" d="M496.964,682.321L496.964,682.321c-2.684,0-4.859-1.681-4.859-3.753v-4.089
			c0-2.073,2.176-3.753,4.859-3.753l0,0c2.684,0,4.859,1.681,4.859,3.753v4.089C501.823,680.64,499.648,682.321,496.964,682.321z"/>
		<path fill="#FEFCF0" d="M471.634,738.25L471.634,738.25c-11.306,0-20.471-9.166-20.471-20.471l0,0h40.942l0,0
			C492.104,729.084,482.939,738.25,471.634,738.25z"/>
		<path fill="#EC866D" d="M473.903,689.808v16.925c4.673,0,8.462-3.789,8.462-8.462
			C482.366,693.596,478.577,689.808,473.903,689.808z"/>
		<g>
			<circle fill="#FFAA83" cx="359.387" cy="691.1" r="20.398"/>
			<circle fill="#EC866D" cx="356.085" cy="691.1" r="9.85"/>
		</g>
		<path fill="#A34D50" d="M449.272,656.62l-19.896,2.196c-1.189,0.131-2.26-0.727-2.391-1.916l-0.199-1.802
			c-0.131-1.189,0.727-2.26,1.916-2.392l19.896-2.196c1.189-0.131,2.26,0.727,2.391,1.916l0.199,1.802
			C451.32,655.418,450.462,656.488,449.272,656.62z"/>
		<path fill="#A6BCE2" d="M351.25,824.018l9.758,89.284l3.091,56.387c1.402,25.57-2.093,65.166,20.801,76.642
			c44.935,22.523,132.594,53.653,132.594,42.171c0-1.943,0,61.126,0,61.126l-14.911,3.979c-12.378,3.304-25.575-0.359-34.48-9.57
			l-16.94-17.522l-139.959-51.492v-121.7L351.25,824.018z"/>
		<g>
			<path fill="#2788C9" d="M733.41,1085.241H428.365v73.944H733.41c19.533,0,35.368-16.554,35.368-36.973
				S752.943,1085.241,733.41,1085.241z"/>
			<path fill="#41ABE5" d="M729.758,1122.213H485.301c-4.534,0-8.209-3.676-8.209-8.209v-2.552c0-4.534,3.675-8.209,8.209-8.209
				h244.457c4.534,0,8.209,3.675,8.209,8.209v2.552C737.967,1118.537,734.292,1122.213,729.758,1122.213z"/>
		</g>
		<path fill="#A34D50" d="M506.414,659.17l-19.8-2.935c-1.184-0.175-2.001-1.277-1.826-2.461l0.266-1.793
			c0.175-1.184,1.277-2.001,2.46-1.826l19.801,2.935c1.184,0.175,2.001,1.277,1.826,2.461l-0.266,1.793
			C508.699,658.528,507.597,659.346,506.414,659.17z"/>
		<path fill="#A34D50" d="M478.05,578.4h-10.54h-35.551c-36.225,0-65.591,29.366-65.591,65.591v43.015
			c49.059,11.554,101.142-85.498,101.142-85.498s29.645,61.305,52.276,60.789v-42.161C519.786,597.085,501.1,578.4,478.05,578.4z"/>
		<g>
			<path fill="#AD3C15" d="M630.611,1741.979l-130.474,16.012c-8.487,1.136-16.195-4.132-17.217-11.765l-3.004-44.601
				c22.604,0.073,44.18-3.115,64.647-9.813l69.62,18.982c8.016,3.059,13.557,9.727,14.607,17.577L630.611,1741.979z"/>
			<g>
				<path fill="#842D15" d="M555.149,1717.787L555.149,1717.787c-1.938-0.466-3.132-2.416-2.667-4.354l4.391-18.264l6.97,1.9
					l-4.34,18.052C559.038,1717.06,557.088,1718.254,555.149,1717.787z"/>
				<path fill="#842D15" d="M570.034,1721.366L570.034,1721.366c-1.939-0.466-3.133-2.416-2.667-4.354l4.283-17.813l6.97,1.9
					l-4.232,17.602C573.922,1720.639,571.973,1721.832,570.034,1721.366z"/>
				<path fill="#842D15" d="M584.638,1724.877L584.638,1724.877c-1.938-0.466-3.132-2.415-2.667-4.354l4.177-17.373l6.97,1.9
					l-4.125,17.16C588.526,1724.15,586.577,1725.344,584.638,1724.877z"/>
			</g>
			<path fill="#6D210F" d="M630.611,1741.979l-1.329-9.932l-146.361,14.179c0,0,1.019,13.753,17.217,11.765L630.611,1741.979z"/>
		</g>
		<g>
			<path fill="#AD3C15" d="M357.473,1747.246l-121.679-49.739c-7.961-3.153-12.116-11.515-9.28-18.674l19.158-40.389
				c19.69,11.103,40.075,18.855,61.207,23.005l51.486,50.562c5.501,6.584,7.081,15.108,4.164,22.472L357.473,1747.246z"/>
			<g>
				<path fill="#842D15" d="M303.433,1689.286L303.433,1689.286c-1.464-1.354-1.554-3.638-0.2-5.103l12.75-13.794l5.154,5.063
					l-12.602,13.633C307.182,1690.55,304.897,1690.64,303.433,1689.286z"/>
				<path fill="#842D15" d="M314.675,1699.678L314.675,1699.678c-1.464-1.354-1.554-3.639-0.201-5.103l12.436-13.454l5.155,5.063
					l-12.288,13.293C318.423,1700.941,316.139,1701.031,314.675,1699.678z"/>
				<path fill="#842D15" d="M325.704,1709.873L325.704,1709.873c-1.464-1.354-1.554-3.639-0.2-5.103l12.128-13.12l5.154,5.062
					l-11.979,12.96C329.453,1711.137,327.168,1711.227,325.704,1709.873z"/>
			</g>
			<path fill="#6D210F" d="M357.473,1747.246l3.69-9.316l-134.649-59.097c0,0-5.826,12.499,9.28,18.674L357.473,1747.246z"/>
		</g>
		<path fill="#FFAA83" d="M510.842,1082.81l-18.896-6.745l-10.382-3.706l-4.587-1.638l-169.881-60.64l-6.59,6.665
			c-13.05,13.199-8.236,35.455,9.103,42.081l103.406,39.517c5.35-8.012,13.337-13.103,22.266-13.103
			c14.962,0,27.286,14.284,28.964,32.681l0.866,0.331c2.257,11.204,10.158,20.981,21.706,25.104l0,0
			c17.521,6.255,36.796-2.879,43.05-20.4l0,0C535.699,1106.616,527.182,1088.643,510.842,1082.81z"/>
		<ellipse fill="#1A6191" cx="428.365" cy="1122.213" rx="29.166" ry="36.973"/>
		<path fill="#F49671" d="M724.296,1077.248l-16.984-10.682l-13.297-8.363l-0.157-0.1l-119.992-75.468
			c-14.688,9.158-31.167,15.178-49.483,17.981c1.923,3.713,4.81,7.038,8.667,9.585l113.64,75.038h13.597
			c16.108,0,29.166,16.554,29.166,36.973c0,0.032,0,0.065,0,0.098c-0.014,6.726,4.652,12.674,11.308,13.648
			c12.793,1.873,26.077-3.746,33.403-15.395l0,0C743.4,1105.878,738.982,1086.484,724.296,1077.248z"/>
		<g>
			<path fill="#FD5145" d="M353.699,1023.296c-19.941,10.096-44.667,6.123-74.179,6.858V864.771
				c0-29.327,23.774-53.101,53.102-53.101h4.178c8.014,0,14.537,6.448,14.629,14.461L353.699,1023.296z"/>
		</g>
		<g>
			<rect x="956.997" y="1298.606" fill="#20A5E0" width="128.453" height="277.571"/>
			<rect x="956.997" y="1323.253" fill="#4DBCE2" width="128.453" height="27.066"/>
			<circle fill="#FCFFFB" cx="1021.224" cy="1515.229" r="21.248"/>
			<path fill="#FCFFFB" d="M1044.522,1390.998h-46.597c-2.468,0-4.469-2.001-4.469-4.469v-3.059c0-2.469,2-4.469,4.469-4.469h46.597
				c2.468,0,4.469,2,4.469,4.469v3.059C1048.991,1388.997,1046.99,1390.998,1044.522,1390.998z"/>
			<path fill="#FCFFFB" d="M1056.836,1412.805h-71.225c-2.468,0-4.469-2-4.469-4.469v-3.059c0-2.468,2.001-4.469,4.469-4.469h71.225
				c2.468,0,4.469,2.001,4.469,4.469v3.059C1061.305,1410.805,1059.304,1412.805,1056.836,1412.805z"/>
			<rect x="956.997" y="1551.531" fill="#2092BA" width="128.453" height="24.646"/>
			<path fill="#2092BA" d="M1060.7,1280.458h-78.953c-13.669,0-24.75,11.081-24.75,24.75v18.045h128.453v-18.045
				C1085.45,1291.539,1074.37,1280.458,1060.7,1280.458z"/>
			<ellipse fill="#9E9E9E" cx="1021.224" cy="1323.253" rx="21.248" ry="15.477"/>
			<path fill="#DBDBDB" d="M1038.811,1314.082c-3.083-4.832-9.789-8.19-17.587-8.19s-14.504,3.358-17.587,8.19h-1.816v5.942
				c0,7.805,8.688,14.133,19.404,14.133s19.404-6.328,19.404-14.133v-5.942H1038.811z"/>
			<ellipse fill="#FCFFFB" cx="1021.224" cy="1314.082" rx="19.404" ry="14.133"/>
		</g>
		<g>
			<path fill="#D8B213" d="M889.347,1190.363c0,0-19.88,267.542,263.042,251.98l4.699,21.959c0,0-82.178,73.648-235.763-3.312
				c0,0-125.43-64.072-44.253-289.48L889.347,1190.363z"/>
			<path fill="#D8B213" d="M877.072,1171.511c0,0-189.244,298.342,62.687,372.31c0,0,95.567,40.832,145.814,1.035l-0.844-16.57
				c0,0-273.738-37.468-212.105-317.593L877.072,1171.511z"/>
			<path fill="#FCD329" d="M1085.189,1537.322l-0.46-9.038c0,0-273.738-37.467-212.105-317.592l2.065-18.189
				c-41.273,83.612-110.819,275.517,84.318,332.81C959.007,1525.313,1033.177,1556.993,1085.189,1537.322z"/>
			<path fill="#F6CF2A" d="M889.347,1190.363l-6.11-9.386c-54.001,193.864,56.75,250.448,56.75,250.448
				c107.394,53.813,179.863,33.989,213.746,17.196l-1.344-6.278C869.466,1457.905,889.347,1190.363,889.347,1190.363z"/>
			<path fill="#67552D" d="M863.378,1195.529l25.667,6.306l4.906-26.173c0.412-2.199-0.853-4.367-2.969-5.092l-9.73-3.328
				c-2.166-0.741-4.542,0.26-5.525,2.326L863.378,1195.529z"/>
			<path fill="#67552D" d="M1152.389,1442.344l4.699,21.959l18.571-11.813c1.942-1.235,2.833-3.605,2.186-5.813l-1.021-3.48
				c-0.727-2.479-3.171-4.04-5.725-3.657L1152.389,1442.344z"/>
			<path fill="#67552D" d="M1084.729,1528.284l0.844,16.571l15.412-8.248c1.808-0.968,2.632-3.115,1.936-5.044l-0.801-2.218
				c-0.656-1.817-2.483-2.937-4.4-2.695L1084.729,1528.284z"/>
		</g>
		<g>
			<rect x="708.502" y="1281.885" fill="#576ED6" width="70.439" height="9.259"/>
			<polygon fill="#4456C2" points="804.445,1590.331 683.035,1590.331 683.035,1338.27 708.502,1291.144 778.941,1291.144 
				804.445,1338.27 			"/>
			<polygon fill="#576ED6" points="804.445,1590.331 765.534,1590.331 765.534,1338.27 740.03,1291.144 778.941,1291.144 
				804.445,1338.27 			"/>
			<rect x="683.035" y="1338.27" fill="#EBEFF0" width="121.41" height="11.597"/>
			<rect x="683.035" y="1552.122" fill="#EBEFF0" width="121.41" height="11.597"/>
			<path fill="#EBEFF0" d="M741.421,1508.737h-31.74c-8.82,0-15.97-7.15-15.97-15.971v-77.361c0-8.82,7.15-15.971,15.97-15.971
				h31.74c8.82,0,15.97,7.15,15.97,15.971v77.361C757.391,1501.587,750.241,1508.737,741.421,1508.737z"/>
			<rect x="708.502" y="1281.885" fill="#4456C2" width="31.528" height="9.259"/>
		</g>
		<g>
			<path fill="#297A4F" d="M1168.891,1357.613l-1.446-35.661l-27.676,1.123l1.447,35.661c-20.504,6.838-34.906,26.576-33.985,49.255
				l6.224,153.41c0.333,8.229,7.276,14.63,15.505,14.296l69.724-2.829c8.229-0.334,14.63-7.275,14.296-15.505l-6.225-153.41
				C1205.835,1381.274,1189.882,1362.769,1168.891,1357.613z"/>
			<path fill="#D84A32" d="M1168.166,1325.086l-28.863,1.172c-3.332,0.135-6.142-2.457-6.277-5.788l-0.145-3.563
				c-0.135-3.332,2.456-6.143,5.788-6.278l28.863-1.171c3.332-0.135,6.143,2.456,6.277,5.788l0.145,3.563
				C1174.09,1322.141,1171.498,1324.951,1168.166,1325.086z"/>
			<g opacity="0.5">
				<path fill="#D5E9F4" d="M1192.035,1563.164l-58.605,2.378c-7.912,0.32-14.586-5.833-14.907-13.745l-5.755-141.85l33.372-1.354
					l53.885-2.187l5.755,141.85C1206.101,1556.169,1199.946,1562.843,1192.035,1563.164z"/>
			</g>
			
				<rect x="1109.063" y="1423.975" transform="matrix(0.9992 -0.0405 0.0405 0.9992 -57.9186 48.1748)" fill="#FFFFFF" width="99.606" height="56.372"/>
		</g>
		<g>
			<path fill="#237851" d="M828.983,1418.168c0,0-30.694-29.314-47.064-34.045s36.824-0.16,51.494,15.971
				c0,0-8.562-37.637-19.114-44.516c0,0,29.691,15.584,35.83,31.295c0,0,15.006-40.903,27.284-53.863c0,0-5.445,63.3-4.769,71.553
				c0,0,23.186-41.541,41.602-45.633c0,0-25.237,55.932-24.555,64.799L828.983,1418.168z"/>
			<g>
				<ellipse fill="#BB3732" cx="855.784" cy="1498.321" rx="100.775" ry="88.531"/>
				<path fill="#CE463A" d="M855.784,1409.79c-55.656,0-100.775,39.637-100.775,88.531c0,19.19,6.953,36.954,18.763,51.456
					c16.3,9.956,36.101,15.797,57.458,15.797c55.656,0,100.774-39.637,100.774-88.531c0-19.19-6.953-36.953-18.763-51.455
					C896.941,1415.631,877.141,1409.79,855.784,1409.79z"/>
				<g>
					<path fill="#FC7B65" d="M934.422,1464.567c-1.635,0-3.242-0.688-4.232-1.964c-22.051-28.426-62.029-38.859-62.43-38.961
						c-2.713-0.69-4.276-3.184-3.491-5.567s3.622-3.756,6.336-3.067c1.783,0.454,43.938,11.464,68.04,42.533
						c1.591,2.052,0.988,4.848-1.347,6.245C936.417,1464.313,935.415,1464.567,934.422,1464.567z"/>
				</g>
			</g>
		</g>
		<g>
			<g>
				<path fill="#CACCDB" d="M1083.384,1607.938c-3.026,0-5.919-1.321-7.902-3.643c-2.163-2.528-2.983-5.94-2.209-9.177
					l56.269-235.156c1.042-4.352,4.75-7.55,9.208-7.938l123.79-10.816c3.223-0.279,6.406,0.958,8.591,3.356
					c2.185,2.396,3.125,5.674,2.545,8.864l-42.785,235.156c-0.844,4.643-4.709,8.135-9.413,8.506l-137.273,10.815
					C1083.929,1607.927,1083.656,1607.938,1083.384,1607.938z M1148.023,1372.089l-51.197,213.96l115.035-9.063l38.912-213.874
					L1148.023,1372.089z"/>
			</g>
			<g>
				<g>
					<g>
						<path fill="#CACCDB" d="M1091.589,1607.938h-450.89l-140.207-431.304c-7.569-23.335-29.132-39.01-53.658-39.01h-16.46
							c-5.743,0-10.398-4.655-10.398-10.398s4.655-10.398,10.398-10.398h16.46c33.569,0,63.082,21.454,73.438,53.384l34.432,105.92
							c0.054,0.007,0.107,0.013,0.162,0.021l597.591,77.404L1091.589,1607.938z M655.807,1587.141h419.375l51.668-215.932
							l-565.029-73.187L655.807,1587.141z"/>
					</g>
					<g>
						<path fill="#CACCDB" d="M1126.663,1428.318c-0.396,0-0.792-0.022-1.186-0.068l-558.039-64.078
							c-5.705-0.655-9.799-5.813-9.144-11.517c0.655-5.707,5.81-9.802,11.517-9.146l557.016,63.962l125.596-10.437
							c5.733-0.485,10.748,3.778,11.224,9.501s-3.778,10.748-9.502,11.224l-126.621,10.522
							C1127.238,1428.306,1126.951,1428.318,1126.663,1428.318z"/>
					</g>
					<g>
						<path fill="#CACCDB" d="M1111.449,1490.65c-0.396,0-0.792-0.023-1.186-0.068L589.5,1430.783
							c-5.705-0.655-9.799-5.812-9.144-11.517c0.655-5.707,5.807-9.8,11.517-9.145l519.771,59.685l129.42-10.01
							c5.755-0.419,10.728,3.841,11.17,9.565c0.442,5.726-3.841,10.727-9.565,11.17l-130.417,10.087
							C1111.984,1490.64,1111.717,1490.65,1111.449,1490.65z"/>
					</g>
					<g>
						<path fill="#CACCDB" d="M1092.745,1568.82c-0.422,0-0.843-0.026-1.261-0.077l-476.133-58.211
							c-5.7-0.698-9.756-5.884-9.06-11.583c0.697-5.702,5.879-9.754,11.584-9.061l474.991,58.071l134.356-13.283
							c5.72-0.57,10.807,3.609,11.371,9.324s-3.609,10.807-9.324,11.371l-135.501,13.397
							C1093.428,1568.803,1093.086,1568.82,1092.745,1568.82z"/>
					</g>
					<g>
						<path fill="#CACCDB" d="M744.597,1607.939c-4.856,0-9.198-3.419-10.185-8.363l-58.731-293.933
							c-1.126-5.632,2.527-11.109,8.159-12.234c5.624-1.128,11.109,2.526,12.234,8.158l58.732,293.934
							c1.126,5.632-2.527,11.109-8.159,12.234C745.959,1607.873,745.273,1607.939,744.597,1607.939z"/>
					</g>
					<g>
						<path fill="#CACCDB" d="M1006.833,1607.939c-4.919,0-9.292-3.506-10.214-8.519l-47.589-258.522
							c-1.04-5.647,2.696-11.068,8.345-12.109c5.643-1.034,11.068,2.695,12.109,8.345l47.589,258.522
							c1.039,5.647-2.696,11.069-8.345,12.109C1008.092,1607.882,1007.458,1607.939,1006.833,1607.939z"/>
					</g>
					<g>
						<path fill="#CACCDB" d="M868.753,1607.939c-4.919,0-9.292-3.506-10.214-8.518l-50.963-276.846
							c-1.039-5.647,2.697-11.069,8.344-12.109c5.644-1.036,11.07,2.694,12.11,8.344l50.963,276.846
							c1.04,5.647-2.696,11.069-8.344,12.109C870.013,1607.882,869.378,1607.939,868.753,1607.939z"/>
					</g>
				</g>
				<g>
					<path fill="#CACCDB" d="M1167.579,1697.91H679.788c-16.013,0-29.635-11.449-32.393-27.222l-6.195-35.44
						c-0.05-0.289-0.089-0.579-0.114-0.87l-3.191-35.92c-0.507-5.719,3.718-10.769,9.438-11.277
						c5.728-0.491,10.77,3.718,11.278,9.438l3.152,35.481l6.12,35.008c1.013,5.799,6.021,10.006,11.906,10.006h487.792
						c5.743,0,10.398,4.655,10.398,10.398S1173.322,1697.91,1167.579,1697.91z"/>
				</g>
				<g>
					<circle fill="#4F4F51" cx="689.657" cy="1726.784" r="38.214"/>
					<path fill="#CACCDB" d="M692.278,1740.741h-5.242c-9.315,0-16.867-7.552-16.867-16.866v-45.938h38.975v45.938
						C709.145,1733.189,701.593,1740.741,692.278,1740.741z"/>
				</g>
				<g>
					<circle fill="#4F4F51" cx="1140.603" cy="1726.784" r="38.214"/>
					<path fill="#CACCDB" d="M1143.224,1740.741h-5.242c-9.315,0-16.866-7.552-16.866-16.866v-45.938h38.975v45.938
						C1160.09,1733.189,1152.539,1740.741,1143.224,1740.741z"/>
				</g>
			</g>
		</g>
	</g>
	<g id="shopping_lady">
		<g>
			<ellipse opacity="0.5" fill="#303030" cx="1698.951" cy="1642.526" rx="457.088" ry="32.6"/>
			<g>
				<path fill="#FFBB91" d="M1643.832,713.192l2.326-21.242c0.254-2.32,1.143-4.525,2.568-6.373l12.086-15.66
					c0.841-1.09,1.293-2.429,1.284-3.806l-0.019-3.048c-0.019-2.909-2.067-5.409-4.915-5.999l0,0
					c-2.09-0.433-4.254,0.245-5.723,1.792l-16.657,17.547c-1.115,1.174-2.44,2.128-3.907,2.813l-10.173,4.747
					c-6.842,3.192-11.751,9.457-13.213,16.864l-11.25,56.967l21.997,10.989l49.036-41.467c1.036-0.876,1.836-1.999,2.326-3.264
					c0,0,6.693-10.086,5.159-13.307c-0.644-1.352-4.286-2.333-5.699-1.839c-2.647,0.923-8.069,7.786-8.069,7.786
					c-1.952,1.883-4.31,3.292-6.893,4.118l-0.678,0.217C1648.33,722.655,1643.25,718.504,1643.832,713.192z"/>
				<path fill="#FFBB91" d="M1410.321,833.628l-0.968,7.134c-3.492,25.716,13.743,49.67,39.235,54.532l50.569,9.646l-28.994-64.109
					L1410.321,833.628z"/>
				<polygon fill="#E0A205" points="1442.147,738.612 1403.127,832.377 1451.737,840.831 				"/>
				<g>
					<polygon fill="#EC866D" points="1631.326,554.401 1639.901,569.984 1631.326,569.984 					"/>
					<path fill="#FFAA83" d="M1584.74,686.134c-0.665-1-3.021-1.612-3.021-1.612c-6.857,0-2.495-5.562-2.48-12.419
						c0.068-33.072,0.104-120.728,0.104-120.728h-62.256c0,0,0.036,87.656,0.104,120.728c0.014,6.857-5.541,12.419-12.398,12.419
						h-1.828c-2.45,2.991-3.807,6.275-3.807,9.722c0,13.886,21.964,25.142,49.057,25.142l0,0l0,0
						c27.094,0,39.139-11.256,39.139-25.142C1587.354,691.406,1586.433,688.678,1584.74,686.134z"/>
					<path fill="#EC866D" d="M1503.052,557.954v40.049c0,37.494,31.497,67.888,70.35,67.888l0,0c1.874,0,3.73-0.072,5.567-0.211
						V536.735h-72.407C1504.287,543.411,1503.052,550.543,1503.052,557.954z"/>
					<path fill="#FFAA83" d="M1586.297,648.15l-22.981-3.17c-37.562,0-68.011-31.071-68.011-69.399v-40.941
						c0-38.329,30.449-69.4,68.011-69.4l0,0c37.562,0,68.011,31.071,68.011,69.4v40.941
						C1631.326,613.909,1623.858,648.15,1586.297,648.15z"/>
					<path fill="#A34D50" d="M1636.852,515.213l-6.844-18.75c-4.794-13.131-12.742-24.96-23.434-33.966
						c-13.337-11.232-33.6-21.065-61.307-15.464c-34.303,6.935-60.941,30.697-70.195,60.827
						c-5.175,16.846-7.515,38.101-0.652,61.835c6.927,23.96,10.86,48.524,10.86,73.261v0.803v10.333v40.179
						c-7.427,54.893,61.484,48.375,61.484,48.375c10.073-0.612,17.073-8.494,21.792-17.356c6.549-12.298,8.451-26.545,5.903-40.243
						l-5.772-31.043c-3.24-26.21-18.802-31.979-15.488-58.185c0.817-6.466,1.729-13.093,2.768-19.599
						c4.284-26.83,27.386-46.604,54.555-46.85l16.626-0.15C1634.352,529.156,1639.322,521.981,1636.852,515.213z"/>
					<g>
						<circle fill="#FFAA83" cx="1553.673" cy="573.876" r="19.476"/>
						<circle fill="#EC866D" cx="1550.52" cy="573.876" r="9.404"/>
					</g>
				</g>
				<polygon fill="#F8D448" points="1590.876,703.101 1495.305,703.101 1495.305,676.33 1584.729,676.33 				"/>
				<g>
					<g>
						<path fill="#FFBB91" d="M1699.989,863.217c-7.799,0-15.577-1.657-22.912-4.957l-39.584-17.812l19.277-42.836l39.584,17.812
							c2.972,1.335,5.587,0.686,6.876,0.181c1.3-0.505,3.676-1.797,4.96-4.779l51.267-97.966l23.003,8.69l-31.138,107.884
							c-5.979,13.861-17.02,24.501-31.093,29.963C1713.665,861.945,1706.819,863.217,1699.989,863.217z"/>
					</g>
					<path fill="#FFBB91" d="M1782.897,656.326l14.018-16.129c1.53-1.761,2.546-3.911,2.935-6.212l3.293-19.505
						c0.229-1.357,0.906-2.599,1.923-3.527l2.251-2.055c2.148-1.961,5.374-2.155,7.741-0.464l0,0c1.736,1.24,2.708,3.29,2.569,5.419
						l-1.575,24.143c-0.104,1.616,0.095,3.237,0.588,4.779l3.421,10.691c2.301,7.191,1.034,15.048-3.411,21.15l-34.189,46.935
						l-23.003-8.69l-2.844-64.156c-0.061-1.356,0.221-2.705,0.816-3.924c0,0,2.861-11.761,6.269-12.822
						c1.43-0.445,4.622,1.563,5.22,2.936c1.118,2.57-0.239,11.211-0.239,11.211c-0.058,2.711,0.509,5.399,1.655,7.856l0.301,0.645
						C1772.896,659.448,1779.393,660.36,1782.897,656.326z"/>
					<g>
						<path fill="#383234" d="M1358.432,1564.708l62.727,70.735c3.345,3.771,3.62,9.36,0.663,13.442l0,0
							c-3.065,4.23-8.726,5.646-13.421,3.357l-88.445-43.127c-9.933-4.843-14.058-16.821-9.215-26.753l10.251-21.022
							c1.279-2.624,3.193-4.888,5.568-6.586l1.21-0.865L1358.432,1564.708z"/>
						<g>
							<path fill="#F2A981" d="M1327.77,1553.89c49.656-174.393,107.541-237.595,136.55-258.407l36.218-104.77l64.125,22.166
								l-45.039,130.294l-12.046,5.003c-5.665,3.43-98.407,38.313-149.146,216.532L1327.77,1553.89z"/>
						</g>
						<path fill="#F2A981" d="M1358.432,1564.708c0,0,35.94,44.624,34.76,48.534c-1.182,3.91-8.839,11.427-29.608-8.5
							s-35.813-50.853-35.813-50.853L1358.432,1564.708z"/>
					</g>
					<path fill="#383234" d="M1543.509,1592.538l87.383,36.087c4.659,1.924,7.356,6.826,6.487,11.792l0,0
						c-0.9,5.146-5.368,8.899-10.592,8.899h-98.399c-11.05,0-20.008-8.958-20.008-20.008v-23.389c0-2.92,0.729-5.793,2.118-8.36
						l0.709-1.308L1543.509,1592.538z"/>
					<g>
						<path fill="#FFBB8E" d="M1511.207,1596.252c-31.801-178.514-7.473-260.692,9.48-292.113l-13.364-110.045l67.354-8.181
							l16.621,136.853l-8.634,9.776c-3.589,5.566-71.66,77.567-39.155,259.996L1511.207,1596.252z"/>
					</g>
					<path fill="#F5B400" d="M1522.733,688.937h-20.008c-34.111,0-61.764,27.653-61.764,61.764v67.596
						c0,13.411,2.299,26.722,6.798,39.356l34.088,95.736h124.396v-47.581c0-9.96,1.713-19.847,5.063-29.227l17.465-48.9
						c7.768-21.749,5.383-45.833-6.499-65.636l-43.865-73.108H1522.733z"/>
					<path fill="#3A3436" d="M1606.244,953.389l20.878,88.731v269.672h-179.201l-5.724-240.401
						c-0.807-33.86,8.249-67.226,26.064-96.032l13.586-21.97H1606.244z"/>
					<path fill="#F5B400" d="M1687.486,809.622l-40.257,53.595L1546.793,741.82c-10.468-15.54-6.355-36.624,9.185-47.092l0,0
						c15.54-10.468,36.624-6.356,47.092,9.184L1687.486,809.622z"/>
					<path fill="#FFBB8E" d="M1543.509,1592.538c0,0,51.862,24.357,52.515,28.389c0.652,4.032-2.937,14.145-30.338,5.337
						c-27.402-8.808-54.479-30.012-54.479-30.012L1543.509,1592.538z"/>
				</g>
			</g>
		</g>
		<g>
			<g>
				<path opacity="0.8" fill="#66D3E7" d="M1791.799,1380.379l-3.027-35.896l-27.857,2.35l3.027,35.896
					c-20.376,7.798-34.029,28.335-32.104,51.163l13.024,154.423c0.698,8.284,7.979,14.433,16.264,13.734l70.184-5.92
					c8.284-0.698,14.433-7.979,13.734-16.264l-13.023-154.423C1830.094,1402.613,1813.193,1384.654,1791.799,1380.379z"/>
				<path fill="#D84A32" d="M1789.638,1347.611l-29.054,2.45c-3.354,0.283-6.302-2.207-6.585-5.561l-0.302-3.586
					c-0.283-3.354,2.206-6.302,5.56-6.585l29.054-2.45c3.354-0.283,6.303,2.207,6.585,5.561l0.303,3.586
					C1795.481,1344.38,1792.991,1347.328,1789.638,1347.611z"/>
				<g opacity="0.5">
					<path fill="#D5E9F4" d="M1824.178,1586.636l-58.992,4.976c-7.964,0.672-14.965-5.24-15.637-13.204l-12.042-142.786
						l33.593-2.833l54.24-4.575l12.042,142.786C1838.054,1578.963,1832.142,1585.964,1824.178,1586.636z"/>
				</g>
				
					<rect x="1735.58" y="1447.711" transform="matrix(0.9965 -0.084 0.084 0.9965 -117.7397 155.306)" fill="#FFFFFF" width="100.537" height="56.9"/>
			</g>
			<g>
				<g>
					<path fill="#FD5145" d="M1889.568,1483.576h-193.135l31.452,142.846c2.375,10.787,11.934,18.471,22.979,18.471h138.703h138.704
						c11.046,0,20.604-7.684,22.979-18.471l31.452-142.846H1889.568z"/>
					<path fill="#D4482F" d="M2086.716,1485.802h-394.294c-7.299,0-13.217-5.917-13.217-13.216v-10.076
						c0-7.299,5.918-13.216,13.217-13.216h394.294c7.299,0,13.216,5.917,13.216,13.216v10.076
						C2099.932,1479.885,2094.015,1485.802,2086.716,1485.802z"/>
					<g>
						<path fill="#B83B29" d="M1803.634,1612.417h-4.019c-5.449,0-9.867-4.418-9.867-9.867v-89.131c0-5.449,4.418-9.867,9.867-9.867
							h4.019c5.449,0,9.867,4.418,9.867,9.867v89.131C1813.501,1607.999,1809.083,1612.417,1803.634,1612.417z"/>
						<path fill="#B83B29" d="M1859.146,1612.417h-4.019c-5.449,0-9.867-4.418-9.867-9.867v-89.131c0-5.449,4.418-9.867,9.867-9.867
							h4.019c5.449,0,9.867,4.418,9.867,9.867v89.131C1869.013,1607.999,1864.595,1612.417,1859.146,1612.417z"/>
						<path fill="#B83B29" d="M1924.01,1612.417h-4.018c-5.45,0-9.867-4.418-9.867-9.867v-89.131c0-5.449,4.417-9.867,9.867-9.867
							h4.018c5.45,0,9.867,4.418,9.867,9.867v89.131C1933.877,1607.999,1929.46,1612.417,1924.01,1612.417z"/>
						<path fill="#B83B29" d="M1979.522,1612.417h-4.019c-5.449,0-9.867-4.418-9.867-9.867v-89.131c0-5.449,4.418-9.867,9.867-9.867
							h4.019c5.449,0,9.866,4.418,9.866,9.867v89.131C1989.389,1607.999,1984.972,1612.417,1979.522,1612.417z"/>
					</g>
				</g>
				<g>
					<path fill="#304F6B" d="M1889.568,1475.531L1889.568,1475.531c-9.543,0-17.279-7.736-17.279-17.279V1280.56
						c0-9.544,7.736-17.28,17.279-17.28l0,0c9.544,0,17.28,7.736,17.28,17.28v177.692
						C1906.849,1467.795,1899.112,1475.531,1889.568,1475.531z"/>
					<circle fill="#D4482F" cx="1889.569" cy="1466.98" r="40.125"/>
					<circle fill="#304F6B" cx="1889.568" cy="1466.98" r="15.787"/>
				</g>
			</g>
		</g>
	</g>
</g>
</svg>
