<?xml version="1.0" encoding="utf-8"?>
<svg viewBox="38.391 -58.501 416.82 288.848" xmlns="http://www.w3.org/2000/svg">
  <defs>
    <linearGradient gradientUnits="userSpaceOnUse" x1="256" y1="146.685" x2="256" y2="400" id="gradient-0" gradientTransform="matrix(0.592461, -0.805597, 1.021193, 0.751016, -224.623018, 292.115617)">
      <stop offset="0" style="stop-color: rgb(83, 232, 139);"/>
      <stop offset="1" style="stop-color: rgb(21, 190, 119);"/>
    </linearGradient>
    <linearGradient gradientUnits="userSpaceOnUse" x1="256.05" y1="112" x2="256.05" y2="295.1" id="gradient-1" gradientTransform="matrix(0.655871, -0.754872, 0.863655, 0.750388, -88.140102, 326.360215)">
      <stop offset="0" style="stop-color: rgb(83, 232, 139);"/>
      <stop offset="1" style="stop-color: rgb(21, 190, 119);"/>
    </linearGradient>
  </defs>
  <path d="M256 295.1c14.8 0 28.7-5.8 39.1-16.4L452 119c-5.5-4.4-12.3-7-19.8-7H79.9c-7.5 0-14.4 2.6-19.8 7L217 278.7c10.3 10.5 24.2 16.4 39 16.4z" transform="matrix(1, 0, 0, 1, -9.199265, -169.264268)" style="fill: url(#gradient-1);"/>
  <path d="M460.6 147.3L353 256.9c-.8.8-.8 2 0 2.8l75.3 80.2c5.1 5.1 5.1 13.3 0 18.4-2.5 2.5-5.9 3.8-9.2 3.8s-6.7-1.3-9.2-3.8l-75-79.9c-.8-.8-2.1-.8-2.9 0L313.7 297c-15.3 15.5-35.6 24.1-57.4 24.2-22.1.1-43.1-9.2-58.6-24.9l-17.6-17.9c-.8-.8-2.1-.8-2.9 0l-75 79.9c-2.5 2.5-5.9 3.8-9.2 3.8s-6.7-1.3-9.2-3.8c-5.1-5.1-5.1-13.3 0-18.4l75.3-80.2c.7-.8.7-2 0-2.8L51.4 147.3c-1.3-1.3-3.4-.4-3.4 1.4V368c0 17.6 14.4 32 32 32h352c17.6 0 32-14.4 32-32V148.7c0-1.8-2.2-2.6-3.4-1.4z" transform="matrix(1, 0, 0, 1, -9.199265, -169.264268)" style="fill: url(#gradient-0);"/>
</svg>