<?xml version="1.0" encoding="utf-8"?>
<svg viewBox="-61.86 -357.413 1067.049 1118.599" xmlns="http://www.w3.org/2000/svg" xmlns:xlink="http://www.w3.org/1999/xlink">
  <defs>
    <clipPath id="Clip_1">
      <path d="M0,0.19 L947.42,0.19 L947.42,1030.94 L0,1030.94 z"/>
    </clipPath>
    <path id="path-0" d="M 213.37 526.934 C 222.759 528.158 248.961 530.32 252.259 530.438 C 257.621 530.63 276.834 528.854 282.429 528.158 C 289.118 527.326 294.913 527.012 301.855 524.654 C 311.325 521.437 338.848 517.37 342.44 515.342 C 346.828 514.117 342.109 517.937 358.023 511.097 C 376.608 509.226 425.508 489.807 423.674 478.514" style="fill: none;"/>
    <path id="path-1" d="M 151.709 596.516 C 307.484 626.149 516.725 557.99 505.899 508.524" style="fill: none;"/>
  </defs>
  <g id="Layer_1" transform="matrix(1, 0, 0, 1, -27.64057, -323.638906)">
    <g clip-path="url(#Clip_1)">
      <path d="M351.311,711.492 C348.938,713.794 347.451,717.598 344.724,718.787 C341.874,720.029 338.992,716.407 335.829,715.602 C315.535,710.435 297.948,698.866 278.652,691.322 C275.874,690.236 275.97,689.99 276.109,682.64 C276.545,678.841 276.956,675.039 277.432,671.246 C277.59,669.978 277.5,668.444 279.555,668.587 C281.357,668.713 282.19,669.53 282.268,671.402 C282.443,675.588 283.383,679.615 285.17,683.432 C289.829,693.386 298.83,698.027 309.67,696.162 C320.114,694.366 328.484,688.839 335.798,681.555 C338.056,679.307 339.003,678.999 340.486,682.241 C344.145,690.24 348.084,698.116 352.095,705.946 C353.247,708.195 353.205,709.654 351.311,711.492 z M838.977,482.829 C835.322,479.472 831.281,476.536 827.342,473.344 C832.458,467.199 835.348,460.183 837.327,452.734 C838.509,451.958 839.134,450.812 839.383,449.468 C841.749,436.721 841.241,424.133 837.251,411.743 C836.551,409.568 835.307,407.891 832.966,407.344 C829.03,406.425 827.381,403.615 826.558,399.963 C825.906,397.069 825.32,394.095 822.933,391.969 C817.494,387.969 811.29,386.321 804.658,386.314 C801.366,386.311 799.94,385.033 799.525,381.728 C798.49,373.478 797.257,365.251 795.695,357.076 C793.415,345.137 790.729,333.298 787.206,321.662 C786.393,318.976 785.693,315.762 782.314,315.38 C778.369,314.934 774.338,315.047 770.373,315.619 C768.508,315.888 767.437,317.057 767.28,318.977 C767.272,321.689 768.236,324.193 768.94,326.753 C776.288,353.45 781.858,380.475 781.688,408.291 C781.624,418.885 780.826,429.523 779.892,440.117 C779.732,442.443 779.209,444.713 778.919,447.02 C775.886,471.198 769.963,494.621 760.516,517.121 C742.508,560.369 713.245,593.725 672.129,616.216 C633.901,637.128 592.205,645.338 549.17,647.164 C532.579,647.867 515.9,647.911 499.244,646.489 C479.271,644.784 459.608,641.649 440.182,636.751 C435.037,635.453 431.203,632.638 427.911,628.723 C414.157,612.37 399.173,597.235 382.641,583.69 C369.101,572.597 355.654,561.279 338.025,556.945 C335.393,556.298 333.245,554.584 331.206,552.865 C327.21,549.494 322.856,546.78 317.819,545.293 C314.737,544.383 312.738,542.453 311.255,539.608 C307.407,532.221 303.707,524.766 300.272,517.179 C290.937,494.535 285.199,470.943 281.794,446.739 C281.702,445.243 281.579,443.754 281.372,442.265 C278.837,424.044 278.479,405.598 280.127,387.456 C282.999,355.84 290.583,325.106 302.665,295.606 C322.096,248.167 352.455,209.776 396.177,182.397 C398.239,181.106 400.709,180.139 401.627,177.515 C400.189,174.781 397.906,176.03 395.972,176.476 C388.536,178.192 381.122,180.052 373.941,182.651 C366.951,185.18 359.46,186.472 353.206,190.864 C319.066,221.429 295.568,258.982 280.112,301.857 C272.975,321.652 268.319,342.08 264.236,362.659 C263.163,368.55 262.316,374.483 261.631,380.43 C261.184,384.311 259.723,386.617 255.371,386.336 C252.702,386.164 250.067,386.888 247.537,387.713 C244.109,388.832 242.669,387.429 242.032,384.144 C240.194,374.662 238.435,365.138 237.967,355.506 C236.656,328.585 238.789,301.976 246.372,275.968 C246.881,274.223 247.578,272.487 247.089,270.596 C246.132,268.673 244.924,269.596 243.916,270.424 C242.096,271.92 241.16,274.103 239.972,276.06 C237.7,279.803 234.605,281.214 230.357,279.969 C229.422,279.695 228.481,279.294 227.481,279.736 C227.212,280.524 226.872,281.295 226.683,282.102 C217.443,321.543 217.457,360.898 227.78,400.159 C228.356,402.347 229.311,404.379 228.162,406.857 C222.344,419.405 222.502,432.756 223.753,446.066 C224.568,454.732 227.327,462.966 232.427,470.217 C241.325,482.867 254.208,487.653 268.98,488.415 C271.664,488.553 272.675,489.46 273.303,491.933 C275.923,502.253 279.424,512.302 283.563,522.098 C286.881,529.95 290.644,537.614 294.258,545.469 C292.855,545.84 291.745,546.196 290.609,546.424 C269.539,550.656 252.038,560.514 239.746,578.615 C236.757,583.017 233.407,587.21 230.788,591.821 C217.447,615.314 207.185,639.304 220.756,666.426 C219.568,666.951 218.718,666.253 217.791,665.974 C201.838,661.168 186.036,660.385 170.726,668.206 C167.741,669.731 167.397,667.83 166.622,665.994 C162.505,656.248 156.198,648.243 147.464,642.248 C142.465,638.817 136.821,636.871 130.941,638.849 C127.3,640.074 126.124,638.814 124.586,636.045 C118.87,625.752 111.941,616.421 101.633,610.239 C87.204,601.586 72.266,605.686 64.469,620.479 C63.04,623.19 62.313,623.634 59.541,621.833 C48.91,614.925 37.096,611.926 24.436,612.706 C12.569,613.437 2.794,621.198 0.704,632.124 C-2.117,646.867 3.103,664.839 24.378,672.609 C30.928,675 37.78,676.057 44.837,677.066 C44.529,677.935 44.379,678.584 44.084,679.158 C38.442,690.103 40.862,707.082 53.849,713.369 C54.578,713.722 55.543,713.908 55.444,714.974 C55.328,716.228 54.221,716.324 53.279,716.636 C41.116,720.654 32.929,729.094 27.922,740.526 C21.843,754.404 21.362,768.268 30.12,781.434 C33.379,786.332 37.581,787.119 42.555,784.016 C45.376,782.255 48.107,780.349 50.853,778.47 C65.941,768.143 80.635,757.182 97.166,749.147 C109.594,743.106 122.513,739.202 136.592,740.265 C139.43,740.479 140.937,741.25 141.939,744.127 C144.263,750.8 148.206,756.592 153.125,761.663 C161.53,770.325 171.747,776.129 183.099,779.889 C186.981,781.175 188.51,782.511 186.505,786.739 C184.524,790.915 183.292,795.457 181.862,799.88 C173.045,827.143 164.687,854.502 165.394,883.64 C166.468,927.847 183.611,964.27 218.542,991.708 C248.907,1015.56 285.03,1024.43 322.236,1029.48 C346.508,1032.77 370.739,1030.36 394.732,1025.68 C433.108,1018.2 468.874,1004.71 499.659,979.892 C502.166,977.87 502.857,979.152 504.062,980.987 C508.569,987.844 514.517,993.045 522.275,995.891 C527.705,997.882 533.484,998.279 537.705,993.891 C540.858,990.614 542.47,991.552 545.544,993.685 C554.623,999.986 563.729,996.695 567.225,986.281 C567.518,985.406 567.145,984.207 568.612,983.582 C576.369,989.705 584.351,996.65 595.32,991.974 C607.001,986.995 605.546,976.01 605.441,965.617 C607.065,966.469 608.064,967.028 609.092,967.527 C622.789,974.162 634.464,967.145 635.171,951.88 C635.431,946.279 633.513,941.089 632.25,935.773 C631.725,934.946 632.226,933.984 631.891,933.133 C630.62,929.777 628.439,926.175 634.104,924.622 C636.603,923.374 639.184,922.258 641.487,920.665 C644.621,918.497 648.9,917.813 650.568,913.728 C670.587,902.499 688.471,888.626 704.186,871.804 C719.745,855.148 726.051,835.336 726.167,813.034 C726.263,794.757 723.273,776.912 718.667,759.314 C707.916,718.242 690.813,679.743 670.738,642.501 C668.517,638.381 669.131,636.922 673.191,635.12 C680.944,631.681 688.326,627.427 695.269,622.545 C698.545,620.241 700.044,620.636 702.686,623.835 C727.56,653.957 759.667,666.082 798.1,660.047 C832.7,654.614 871.784,627.293 874.474,573.967 C876.269,538.377 865.705,507.382 838.977,482.829" fill="#6E4100"/>
      <path d="M246.489,269.735 C243.169,271.052 242.656,274.585 240.849,277.066 C236.866,282.534 233.239,283.407 227.481,279.736 C223.321,274.136 225.854,268.006 226.659,262.324 C234.593,206.343 255.086,155.52 290.474,111.165 C327.912,64.241 376.593,34.075 433.66,16.883 C467.957,6.551 503.148,1.994 538.893,0.508 C623.63,-3.017 700.078,23.063 771.995,65.259 C809.787,87.433 844.53,113.674 874.645,145.715 C884.126,155.802 892.815,166.537 899.922,178.466 C904.795,186.644 902.873,191.318 893.498,193.769 C875.663,198.433 857.578,200.698 839.12,198.965 C838.315,198.889 837.496,198.955 836.267,198.955 C841.226,211.224 845.414,223.439 848.474,236.036 C856.988,271.082 858.164,306.507 853.887,342.168 C853.432,345.961 854.727,346.931 857.623,348.198 C883.521,359.531 906.074,375.298 922.973,398.356 C941.896,424.177 948.87,453.366 947.174,484.97 C946.931,489.497 944.97,492.822 940.351,493.543 C907.905,498.609 878.058,493.448 852.728,470.886 C846.741,465.553 842.311,458.911 837.327,452.734 C840.297,439.281 840.175,425.918 836.179,412.663 C835.485,410.36 834.689,408.681 831.634,408.48 C827.804,408.229 826.276,405.092 825.445,401.663 C824.718,398.659 824.706,395.388 822.318,392.979 C816.164,371.684 808.208,351.072 798.193,331.309 C780.656,296.705 757.883,265.946 729.071,239.897 C713.488,225.808 696.407,213.666 677.771,203.831 C676.002,202.898 674.327,201.815 672.586,200.839 C666.672,197.566 660.532,194.791 654.208,192.403 C624.745,179.822 593.938,172.486 562.144,169.49 C545.635,167.934 529.062,166.416 512.42,167.482 C506.918,167.218 501.399,166.532 495.965,168.137 C486.192,165.754 476.414,168.002 466.72,168.563 C448.993,169.588 431.403,172.233 413.901,175.382 C409.745,176.13 405.808,178.444 401.364,177.45 C395.969,176.844 391.071,179.039 386.096,180.43 C374.939,183.552 363.781,186.753 353.265,191.767 C343.772,196.946 333.616,200.719 324.018,205.71 C301.863,217.23 281.69,231.4 264.156,249.234 C258.27,255.134 252.841,261.408 248.395,268.487 C247.948,269.199 247.511,269.909 246.489,269.735" fill="#6B421E"/>
    </g>
    <path d="M57.5,845.442 C58.648,845.339 60.417,846.272 62.201,847.172 C73.748,853 85.307,858.804 96.842,864.655 C102.551,867.55 104.476,871.94 102.236,876.712 C100.092,881.28 94.98,882.718 89.446,879.983 C77.108,873.885 64.841,867.643 52.554,861.442 C48.284,859.287 47.272,855.569 48.368,851.337 C49.408,847.325 52.402,845.459 57.5,845.442" fill="#EF6F63"/>
    <path d="M82.307,914.274 C88.019,914.21 91.391,916.884 92.125,921.284 C92.816,925.43 90.238,929.344 85.797,930.705 C79.879,932.518 73.701,932.681 67.611,933.309 C63.147,933.768 58.748,934.441 54.356,935.354 C48.541,936.562 44.253,933.999 43.266,929.02 C42.247,923.878 44.988,920.095 50.77,918.671 C61.446,916.04 72.541,916.502 82.307,914.274" fill="#EF6F63"/>
    <path d="M130.391,823.896 C130.214,827.32 128.742,829.971 125.6,831.497 C122.273,833.113 118.798,832.984 116.361,830.252 C109.048,822.054 101.882,813.713 94.978,805.17 C92.364,801.936 93.419,796.953 96.446,794.291 C99.402,791.69 104.636,791.365 107.465,794.203 C115.348,802.112 122.349,810.811 129.197,819.62 C130.104,820.785 130.475,822.328 130.391,823.896" fill="#EF6F63"/>
    <path d="M633.089,923.79 C639.059,920.686 645.082,917.672 650.568,913.728 C649.647,919.3 649.858,924.921 649.857,930.531 C649.857,935.264 648.39,939.229 643.388,940.398 C638.526,941.534 635.102,939.237 633.185,934.677 C632.616,933.983 632.335,933.162 632.125,932.307 C631.766,929.392 631.655,926.503 633.089,923.79" fill="#6C431F"/>
    <path d="M633.118,932.65 C633.14,933.326 633.163,934.001 633.185,934.677 C632.873,935.042 632.562,935.408 632.25,935.773 C631.866,935.022 631.483,934.272 631.099,933.521 C631.313,932.168 632.015,931.944 633.118,932.65" fill="#ECE7E1"/>
    <path d="M401.364,177.45 C410.338,173.656 419.986,172.883 429.438,171.32 C449.943,167.929 470.624,166.301 491.392,165.74 C493.305,165.689 495.47,165.203 496.309,167.796 C498.573,171.238 498.68,175.32 499.626,179.142 C509.595,219.417 524.548,257.392 551.327,289.765 C560.806,301.225 571.697,311.231 585.071,318.148 C592.727,322.107 593.375,321.914 598.873,315.076 C599.54,314.248 600.4,313.83 601.438,313.693 C612.372,314.603 623.194,316.392 634.112,317.452 C659.876,319.954 685.512,320.213 710.992,314.967 C711.979,314.853 712.984,314.935 713.847,315.408 C717.821,317.586 721.35,316.875 724.613,313.929 C725.359,313.256 726.306,312.972 727.328,312.962 C739.343,314.655 751.392,315.906 763.521,316.325 C765.37,316.388 767.218,316.636 768.11,318.663 C776.998,348.76 783.79,379.21 783.114,410.851 C782.901,420.827 782.404,430.803 781.141,440.719 C778.437,441.732 777.666,439.426 776.685,437.904 C774.335,434.258 771.739,430.843 768.88,427.571 C749.521,405.418 719.377,405.246 697.738,423.097 C683.044,435.219 674.277,451.099 672.938,469.919 C671.433,491.055 681.677,506.992 700.04,516.778 C712.452,523.392 726.157,526.529 740.542,524.397 C746.034,523.582 751.162,521.74 756.081,519.221 C757.787,518.348 759.297,516.665 761.546,517.695 C752.109,541.5 738.306,562.492 720.63,580.956 C689.261,613.721 650.179,632.293 606.442,641.363 C550.386,652.987 494.405,652.137 438.795,637.756 C434.596,636.67 431.359,634.778 428.518,631.427 C409.611,609.122 388.756,588.848 365.018,571.668 C361.657,569.236 358.345,566.192 354.524,565.037 C339.987,560.642 328.2,550.733 314.113,545.558 C312.857,545.097 312.291,544.138 311.741,543.146 C307.149,534.873 302.532,526.609 299.322,517.661 C298.805,513.444 301.479,515.865 302.521,516.361 C307.96,518.952 313.589,520.967 319.404,522.475 C330.187,525.27 340.923,526.142 351.836,522.709 C365.746,518.335 374.758,508.205 382.552,496.847 C395.621,477.803 392.064,458.649 381.758,439.844 C378.803,434.454 374.906,429.696 370.617,425.178 C353.712,407.375 326.92,405.669 306.253,419.703 C297.234,425.827 290.558,433.996 285.031,443.258 C284.053,444.897 283.685,447.71 280.553,446.719 C271.373,369.881 289.457,299.919 334.315,237.053 C352.036,212.22 375.287,193.128 401.364,177.45" fill="#FEF8EA"/>
    <path d="M223.345,974.634 C201.498,956.173 188.598,932.597 183.421,904.64 C180.385,888.248 180.818,871.84 183.518,855.45 C183.677,854.485 184.101,853.563 184.401,852.62 C186.132,851.116 188.126,851.482 190.104,851.844 C208.115,855.141 226.215,858.198 244.5,858.833 C259.243,859.345 273.949,860.37 288.825,859.599 C315.841,858.2 342.523,855.064 368.907,849.341 C402.874,841.972 435.628,830.939 466.938,815.776 C484.022,807.502 500.964,798.955 516.782,788.369 C518.155,787.45 519.538,786.45 521.353,786.676 C541.134,828.546 546.417,871.304 529.191,915.42 C528.48,917.241 527.415,918.923 526.514,920.67 C517.015,928.288 505.732,932.552 494.713,937.179 C454.484,954.069 412.272,963.389 369.186,968.953 C341.965,972.469 314.625,974.565 287.14,975.369 C272.498,975.797 257.865,975.812 243.229,976.054 C236.575,976.164 229.981,975.005 223.345,974.634" fill="#C4E6FE"/>
    <path d="M521.353,786.676 C512.704,793.464 503.117,798.808 493.493,803.963 C467.397,817.94 440.53,830.239 412.239,839.174 C387.112,847.111 361.575,853.246 335.413,856.741 C319.82,858.824 304.145,859.655 288.504,860.995 C273.971,862.239 259.641,860.858 245.293,860.348 C226.345,859.673 207.497,856.785 188.859,852.969 C187.41,852.672 185.889,852.728 184.401,852.621 C186.345,838.561 190.608,825.082 194.889,811.631 C205.882,777.09 220.607,743.93 232.761,709.818 C235.435,702.313 238.051,694.78 240.376,687.163 C241.231,684.358 242.287,683.843 244.838,685.014 C248.218,686.566 251.903,687.267 255.558,686.756 C259.859,686.155 260.272,688.161 260.293,691.747 C260.385,707.962 264.093,723.388 271.287,737.931 C280.853,757.269 294.367,764.674 315.264,759.368 C333.205,754.813 351.227,751.47 369.512,748.907 C401.386,744.44 412.649,717.056 410.694,693.412 C408.95,672.312 399.32,654.388 388.21,637.057 C379.812,623.957 370.304,611.795 357.836,602.236 C356.727,601.386 355.917,600.411 355.719,599 C354.954,593.564 353.086,588.423 351.197,582.96 C353.795,582.363 355.013,584.292 356.444,585.339 C379.29,602.041 399.164,621.869 417.596,643.258 C445.314,675.421 473.297,707.37 496.847,742.836 C506.126,756.812 514.933,771.086 521.353,786.676" fill="#DFF1FE"/>
    <path d="M641.442,648.711 C653.205,643.542 653.297,643.494 659.178,654.758 C678.449,691.668 695.166,729.604 704.842,770.301 C708.004,783.596 709.873,797.071 710.209,810.784 C710.745,832.655 703.291,850.928 687.493,866.218 C668.51,884.591 646.647,898.601 623.357,910.662 C621.414,911.668 620.307,911.842 619.082,909.549 C615.551,902.941 611.471,896.649 606.701,890.857 C605.152,888.975 605.622,888.364 607.6,887.357 C613.084,884.564 618.405,881.456 623.138,877.465 C636.619,866.095 635.152,852.678 619.553,844.516 C618.237,843.827 616.937,843.107 615.284,842.214 C627.063,835.807 638.56,829.585 649.089,821.777 C653.785,818.294 658.293,814.611 661.996,810.061 C663.993,807.606 665.538,804.881 666.6,801.843 C668.074,797.628 667.133,794.08 663.44,791.844 C659.863,789.677 656.153,789.86 653.27,793.507 C650.886,793.295 651.133,791.317 650.927,789.8 C650.612,787.494 650.612,785.136 650.806,782.827 C651.44,775.262 649.931,768.322 645.505,762.035 C643.44,759.102 642.8,755.68 642.771,752.089 C642.629,734.312 642.115,716.525 641.482,698.776 C640.936,683.491 641.38,668.199 640.497,652.935 C640.41,651.43 640.268,649.927 641.442,648.711" fill="#FEFEFE"/>
    <path d="M773.198,645.504 C752.804,642.824 734.883,635.029 720.427,620.034 C711.737,611.022 711.905,611.24 721.228,602.888 C747.636,579.23 766.472,550.362 779.265,517.426 C782.396,509.366 785.282,501.218 787.413,492.835 C788.155,489.914 789.239,488.396 792.704,488.45 C798.012,488.533 803.255,487.399 808.37,485.877 C814.981,489.719 819.005,496.039 822.388,502.369 C839.955,535.244 841.797,569.154 826.257,603.147 C817.547,622.201 802.28,635.179 782.794,643.013 C780.794,643.816 778.745,644.554 776.549,644.639 C775.366,644.655 774.179,644.68 773.198,645.504" fill="#D7AA61"/>
    <path d="M223.345,974.634 C226.574,972.589 230.176,973.512 233.512,973.774 C250.424,975.107 267.312,975.203 284.211,973.697 C285.698,973.565 287.205,973.65 288.703,973.636 C311.239,973.422 333.61,971.237 356.017,968.883 C384.872,965.85 413.312,960.863 441.343,953.57 C467.422,946.784 492.723,937.777 516.768,925.454 C519.986,923.805 522.668,921.041 526.514,920.67 C521.052,933.951 512.601,945.231 502.676,955.401 C477.264,981.438 445.605,996.243 411.033,1005.54 C388.122,1011.69 364.761,1015.33 341.011,1014.95 C317.034,1014.56 293.891,1008.95 271.216,1001.51 C253.536,995.706 237.199,987.337 223.345,974.634" fill="#DFF1FE"/>
    <path d="M280.553,446.719 C282.876,446.402 283.001,444.21 283.86,442.718 C292.739,427.289 304.848,415.626 322.396,410.889 C339.819,406.186 355.561,409.814 369.132,421.926 C381.951,433.368 389.173,448.07 391.949,464.648 C394.231,478.27 389.344,490.558 381.071,501.364 C376.119,507.833 370.687,513.942 363.775,518.465 C350.04,527.454 335.209,527.961 319.85,523.938 C313.258,522.211 306.724,520.292 300.853,516.663 C299.634,515.91 299.545,516.889 299.322,517.662 C290.964,499.069 285.979,479.492 282.417,459.508 C281.661,455.269 281.168,450.983 280.553,446.719" fill="#FFD5BA"/>
    <path d="M761.546,517.695 C754.736,521.543 747.77,524.645 739.834,525.842 C728.408,527.565 717.642,525.059 707.222,521.369 C687.037,514.223 674.739,499.713 671.659,478.469 C669.786,465.556 673.954,453.379 680.22,442.2 C688.917,426.684 701.356,415.286 718.968,410.723 C736.069,406.293 751.512,409.913 764.797,421.691 C770.031,426.331 774.698,431.514 778.067,437.763 C778.715,438.963 779.26,440.639 781.141,440.718 C778.147,467.278 772.476,493.156 761.546,517.695" fill="#FFD5BA"/>
    <path d="M635.27,811.629 C621.526,821.419 606.349,828.634 591.319,836.115 C589.908,836.818 588.431,836.808 586.932,836.756 C576.954,836.409 566.975,836.007 557.156,838.46 C555.292,838.926 553.883,838.634 553.552,836.346 C549.595,808.985 539.235,783.91 526.205,759.788 C526.07,759.539 526.188,759.153 526.188,758.332 C533.965,758.332 541.738,758.332 549.51,758.332 C559.994,758.332 570.479,758.393 580.963,758.312 C588.925,758.25 591.456,755.66 591.471,747.876 C591.485,740.886 591.496,733.897 591.461,726.907 C591.452,725.015 591.586,723.4 593.46,722.191 C608.014,712.799 612.391,698.012 614.231,682.076 C615.087,674.664 615.641,667.18 614.502,659.7 C613.61,653.833 619.02,655.926 621.477,654.286 C625.183,653.526 626.748,655.289 626.823,658.816 C626.834,659.316 626.9,659.815 626.882,660.314 C626.226,677.636 628.246,694.91 627.874,712.22 C627.562,726.715 629.493,741.139 628.971,755.634 C628.809,760.128 630.592,764.102 632.965,767.799 C635.846,772.289 637.109,777.117 636.959,782.481 C636.754,789.803 636.909,797.135 636.908,804.463 C636.907,806.981 636.85,809.477 635.27,811.629" fill="#AAD874"/>
    <path d="M340.667,607.531 C340.508,610.524 340.581,612.047 340.325,613.511 C338.536,623.726 333.223,631.01 320.372,626.187 C314.704,624.06 309.55,621.298 306.33,615.668 C304.122,611.807 299.589,610.813 295.906,612.73 C292.03,614.747 290.478,619.039 292.44,623.401 C295.816,630.905 297.191,638.609 295.427,646.718 C294.111,652.768 290.914,654.78 284.926,653.326 C280.061,652.144 275.513,650.07 271.012,647.929 C267.665,646.337 264.494,646.511 261.692,648.904 C258.833,651.344 258.527,654.583 259.497,658.036 C259.586,658.355 259.76,658.651 259.841,658.971 C260.767,662.626 262.888,666.81 259.328,669.682 C255.884,672.46 251.685,670.726 248.01,669.043 C233.422,662.363 227.357,648.665 231.735,630.38 C236.909,608.768 248.093,590.183 264.417,575.424 C276.228,564.746 291.475,560.902 307.404,560.769 C312.074,560.731 316.151,562.812 319.602,565.848 C332.611,577.294 339.4,591.8 340.667,607.531" fill="#FEF8EA"/>
    <path d="M768.11,318.663 C766.357,316.882 764.107,317.501 762.014,317.427 C749.979,317.007 737.926,316.763 726.179,313.627 C725.128,306.711 720.344,302.023 716.351,296.788 C695.352,269.26 680.837,238.644 673.07,204.875 C672.69,203.225 671.59,201.331 673.609,199.868 C692.175,210.059 709.8,221.589 725.852,235.505 C752.802,258.868 774.638,286.341 792.09,317.339 C804.693,339.723 814.797,363.207 821.904,387.925 C822.354,389.49 823.982,391.163 822.317,392.978 C816.307,388.875 809.567,387.4 802.423,387.758 C799.552,387.901 798.504,387.234 798.168,384.066 C795.868,362.38 791.447,341.098 785.368,320.152 C784.565,317.384 783.579,315.811 780.232,316.497 C777.661,317.024 774.924,316.727 772.263,316.834 C770.652,316.898 768.809,316.502 768.11,318.663" fill="#D7AA61"/>
    <path d="M529.764,947.832 C547.968,921.332 555.892,891.421 555.429,859.128 C555.382,855.925 556.353,854.968 559.384,854.331 C575.747,850.894 591.8,852.326 607.727,856.785 C608.362,856.963 608.97,857.26 609.566,857.552 C611.754,858.628 614.954,859.153 615.339,861.682 C615.711,864.126 612.662,865.218 610.862,866.562 C604.705,871.163 597.727,874.35 590.922,877.84 C582.377,882.223 581.679,887.222 588.224,894.165 C602.042,908.825 610.876,926.474 618.074,945.021 C619.037,947.502 620.724,951.314 618.334,952.978 C615.953,954.637 613.363,951.418 611.24,949.805 C603.633,944.023 597.103,937.179 591.798,929.198 C590.694,927.536 589.673,925.776 588.33,924.323 C585.343,921.094 581.685,920.525 577.964,922.818 C574.151,925.167 573.346,928.82 575.05,932.799 C576.02,935.062 577.621,937.054 578.928,939.173 C585.328,949.55 589.38,960.669 589.473,973.002 C589.483,974.387 590.182,976.334 588.518,976.992 C587.122,977.544 585.733,976.295 584.489,975.475 C580.26,972.688 576.911,968.977 573.771,965.082 C569.272,959.502 565.405,953.485 561.694,947.359 C558.705,942.427 554.216,940.846 550.022,943.108 C545.878,945.342 544.983,949.812 547.592,955.246 C551.387,963.151 552.947,971.085 551.966,978.194 C542.185,969.924 539.512,956.606 529.764,947.832" fill="#FEF8EA"/>
    <path d="M31.327,628.665 C37.034,629.03 44.302,631.028 50.879,635.343 C54.922,637.996 57.958,641.413 59.277,646.113 C60.488,650.428 63.381,652.743 67.664,652.348 C72.199,651.93 74.72,648.931 74.969,644.288 C75.292,638.278 75.912,632.368 79.187,627.066 C82.544,621.629 86.948,619.911 92.223,623.442 C105.196,632.125 113.49,644.248 116.337,659.737 C117.1,663.889 118.447,667.116 123.017,667.802 C127.755,668.513 130.647,666.517 132.37,661.57 C135.401,652.865 136.055,652.717 142.654,659.204 C145.269,661.774 147.707,664.44 149.545,667.688 C155.483,678.181 155.156,681.171 147.25,689.885 C145.707,691.585 144.719,690.785 143.492,689.959 C132.611,682.641 122.086,682.64 111.996,691.476 C109.478,693.681 107.579,692.405 106.324,690.192 C103.849,685.831 100.523,684.019 95.576,685.566 C94.826,685.8 93.897,685.712 93.105,685.532 C80.866,682.752 71.196,687.285 63.431,696.389 C60.468,699.863 59.08,698.473 57.992,695.399 C56.784,691.984 56.816,688.434 59.183,685.43 C61.339,682.694 63.676,680.083 66.107,677.586 C69.147,674.462 70.692,670.953 69.009,666.735 C67.322,662.507 63.553,661.763 59.522,661.773 C50.675,661.793 41.902,660.98 33.374,658.609 C25.933,656.54 19.381,653.134 16.947,644.915 C13.782,634.233 18.173,628.411 31.327,628.665" fill="#16AD71"/>
    <path d="M263.426,248.51 C283.552,227.28 307.717,211.833 333.98,199.447 C340.236,196.497 346.371,193.152 353.265,191.767 C353.155,193.104 352.03,193.69 351.201,194.456 C309.488,233.014 284.86,281.226 271.394,335.731 C269.255,344.39 267.374,353.114 265.374,361.808 C262.37,361.128 262.553,358.374 262.032,356.292 C259.49,346.122 258.101,335.748 257.037,325.337 C254.657,302.032 256.377,278.943 260.862,256.01 C261.375,253.387 262.065,250.837 263.426,248.51" fill="#D7AA61"/>
    <path d="M195.872,678.498 C204.554,678.266 212.517,681.088 220.502,684.048 C223.643,685.213 223.857,686.588 222.867,689.53 C217.092,706.683 210.542,723.542 204.001,740.407 C201.002,748.142 197.883,755.835 195.059,763.633 C194.089,766.314 192.988,766.635 190.423,765.657 C182.309,762.565 174.411,759.128 167.767,753.385 C154.617,742.019 150.144,722.926 156.577,705.905 C162.684,689.749 178.859,678.469 195.872,678.498" fill="#FEFEFE"/>
    <path d="M775.441,643.802 C799.368,637.062 816.979,622.364 826.306,599.549 C840.991,563.626 838.213,528.703 816.468,495.951 C814.094,492.377 811.086,489.224 808.371,485.877 C812.166,483.403 815.187,484.865 818.644,487.158 C856.664,512.376 866.556,563.505 853.213,598.44 C841.93,627.983 810.215,647.362 776.344,645.497 C775.724,645.101 774.755,644.892 775.441,643.802" fill="#FEFEFE"/>
    <path d="M263.426,248.51 C262.358,258.91 259.896,269.092 258.898,279.522 C256.279,306.894 258.07,333.909 264.546,360.62 C264.651,361.057 265.09,361.412 265.374,361.807 C264.423,369.881 263.439,377.951 262.55,386.03 C262.368,387.68 261.457,387.776 260.175,387.714 C254.791,387.449 249.56,388.226 244.6,390.371 C242.289,391.37 241.811,390.267 241.367,388.296 C236.211,365.426 234.795,342.331 236.82,318.982 C238.274,302.208 242.103,285.922 246.489,269.735 C250.538,261.386 257,254.963 263.426,248.51" fill="#FEFEFE"/>
    <path d="M635.27,811.629 C635.292,802.321 634.978,792.996 635.458,783.711 C635.757,777.937 634.561,772.914 631.431,768.195 C628.505,763.785 627.357,758.993 627.308,753.622 C627.135,734.355 626.895,715.079 626.101,695.83 C625.581,683.21 625.458,670.593 625.278,657.974 C625.236,655.027 624.087,654.133 621.477,654.286 C628.132,652.427 634.787,650.569 641.442,648.711 C641.912,664.678 642.42,680.643 642.843,696.611 C643.341,715.41 643.823,734.21 644.17,753.012 C644.228,756.183 645.261,758.882 646.904,761.375 C651.376,768.161 653.217,775.415 652.319,783.601 C651.969,786.789 650.927,790.418 653.27,793.507 C649.437,801.701 642.67,806.979 635.27,811.629" fill="#6B421E"/>
    <path d="M39.516,759.971 C39.814,747.796 48.201,731.707 64.243,730.773 C69.489,730.468 71.736,727.591 71.43,721.987 C71.107,716.056 72.322,710.739 76.248,706.2 C81.269,700.396 86.635,699.137 93.664,702.544 C98.146,704.716 102.325,707.507 106.699,709.911 C111.736,712.679 114.828,712.074 118.559,707.76 C119.212,707.006 119.744,706.143 120.424,705.417 C125.879,699.596 133.345,699.838 138.544,705.917 C139.282,706.78 139.561,707.669 139.299,708.651 C138.169,712.89 138.25,717.23 138.15,721.552 C138.099,723.72 136.91,724.482 134.939,724.406 C104.52,723.228 80.566,738.683 56.866,754.77 C52.874,757.48 49.032,760.416 45.02,763.096 C43.713,763.968 42.318,765.992 40.808,765.075 C39.265,764.138 39.472,761.822 39.516,759.971" fill="#16AD71"/>
    <path d="M598.809,673.222 C598.609,678.231 598.093,684.493 596.441,690.629 C591.907,707.473 581.909,714.098 564.605,711.461 C558.198,710.485 552.055,708.471 545.98,706.205 C543.517,705.286 543.443,704.473 544.873,702.426 C553.524,690.049 562.071,677.599 570.599,665.137 C571.746,663.46 573.182,662.895 575.145,662.666 C581.569,661.919 588.009,661.171 594.359,659.974 C597.662,659.352 598.925,660.153 598.826,663.447 C598.742,666.269 598.809,669.096 598.809,673.222" fill="#FEFEFE"/>
    <path d="M355.379,621 C371.116,638.074 382.976,656.522 391.035,677.396 C392.273,680.604 389.702,682.658 388.832,685.23 C386.905,690.922 383.855,695.193 377.012,694.979 C376.069,694.95 375.099,695.499 374.155,695.822 C366.363,698.483 366.362,698.487 362.801,691.289 C358.826,683.253 354.917,675.183 350.841,667.197 C349.554,664.675 349.303,662.496 350.357,659.704 C353.445,651.525 353.928,643.185 350.41,634.933 C349.852,633.623 349.664,632.492 350.557,631.252 C352.591,628.426 353.782,625.161 355.379,621" fill="#FEFEFE"/>
    <path d="M823.204,435.119 C822.916,440.966 822.464,447.081 820.454,452.985 C816.525,464.525 807.731,471.297 795.662,472.179 C793.265,472.354 792.489,472.104 793.046,469.337 C796.594,451.689 798.379,433.829 798.965,415.844 C799.035,413.685 799.413,411.475 799.085,409.377 C798.258,404.082 800.971,403.3 805.34,403.698 C812.811,404.379 817.587,408.376 820.162,415.19 C822.546,421.501 823.042,428.133 823.204,435.119" fill="#FEF8EA"/>
    <path d="M258.174,403.699 C260.83,403.193 261.915,404.349 261.916,407.496 C261.923,428.147 263.806,448.642 267.839,468.903 C268.455,471.994 267.607,472.261 264.943,471.917 C253.222,470.403 245.163,464.177 241.683,452.952 C238.016,441.125 237.996,428.999 241.401,417.067 C243.951,408.126 249.615,403.795 258.174,403.699" fill="#FEF8EA"/>
    <path d="M516.318,705.482 C509.904,708.618 503.309,710.144 496.658,711.517 C494.815,711.897 494.025,710.772 493.061,709.547 C483.397,697.267 473.725,684.993 463.966,672.788 C460.943,669.008 462.743,664.82 462.67,660.819 C462.638,659.078 464.418,659.844 465.456,659.982 C472.371,660.904 479.275,661.92 486.197,662.79 C487.982,663.014 489.29,663.622 490.287,665.172 C498.892,678.55 507.54,691.901 516.318,705.482" fill="#FEFEFE"/>
    <path d="M505.121,725.997 C514.036,724.704 521.326,719.996 529.7,718.63 C532.465,718.179 534.877,718.877 537.382,719.931 C548.474,724.598 559.844,728.196 572.078,727.785 C574.609,727.7 575.48,728.386 575.581,731.077 C575.995,742.146 576.099,742.142 564.938,742.142 C549.793,742.142 534.648,742.072 519.504,742.205 C516.675,742.229 514.904,741.384 513.459,738.948 C510.937,734.698 508.122,730.622 505.121,725.997" fill="#FEFDFD"/>
    <path d="M312.488,640.509 C320.48,643.312 328.048,644.877 335.967,642.726 C337.527,646.855 336.79,650.779 335.254,654.471 C330.525,665.836 322.535,674.201 311.215,679.11 C303.159,682.604 298.278,679.156 298.227,670.335 C298.219,668.941 298.274,667.763 299.679,666.955 C308.963,661.612 311.3,652.628 312.203,642.905 C312.263,642.262 312.355,641.622 312.488,640.509" fill="#FEF8EA"/>
    <path d="M529.608,696.31 C522.685,685.637 516.142,675.548 509.12,664.722 C523.335,665.223 536.823,665.422 551.398,664.62 C544.024,675.344 537.08,685.444 529.608,696.31" fill="#FEF7E9"/>
    <path d="M354.411,734.399 C361.587,722.545 369.956,713.251 383.324,710.008 C386.293,709.288 390.36,708.362 392.242,711.013 C393.816,713.228 391.038,716.164 389.72,718.562 C384.419,728.213 375.369,731.965 365.176,733.521 C361.952,734.013 358.703,735.068 354.411,734.399" fill="#FF4900"/>
    <path d="M322.937,729.536 C326.835,729.234 331.038,730.671 335.01,732.915 C335.956,733.449 337.327,733.847 336.826,735.44 C336.529,736.385 336.18,737.336 335.005,737.584 C324.336,739.842 314.304,744.935 303.091,744.749 C301.973,744.731 300.515,745.151 299.853,744.088 C298.99,742.703 300.349,741.622 301.058,740.593 C306.15,733.213 313.208,729.535 322.937,729.536" fill="#FF4900"/>
    <path d="M300.61,718.937 C295.203,722.896 290.53,727.014 286.854,732.745 C282.552,725.209 280.038,717.534 278.203,708.743 C285.985,712.284 293.107,715.524 300.61,718.937" fill="#FDFDFD"/>
    <path d="M527.482,980.606 C521.407,977.967 517.676,973.66 515.236,968.347 C513.42,964.396 517.656,962.983 519.643,961.244 C521.161,959.915 521.74,962.919 522.502,964.098 C525.651,968.976 527.625,974.237 527.482,980.606" fill="#FCF5E7"/>
    <path d="M633.118,932.65 C632.263,932.522 631.498,932.601 631.1,933.524 C630.77,932.804 630.539,932.019 630.096,931.382 C627.266,927.32 628.68,924.975 633.089,923.79 C633.098,926.743 633.108,929.697 633.118,932.65" fill="#A6CC6F"/>
    <path d="M775.441,643.802 C775.742,644.367 776.043,644.932 776.344,645.497 C775.297,645.5 774.249,645.502 773.2,645.505 C773.367,644.175 774.088,643.573 775.441,643.802" fill="#E2D0B8"/>
    <path d="M246.371,242.191 C252.312,215.287 261.36,190.036 273.832,166 C286.586,141.423 302.649,119.216 322.258,99.713 C350.566,71.558 383.925,51.304 421.441,37.826 C450.238,27.48 479.972,21.527 510.396,18.52 C533.161,16.271 555.97,15.569 578.74,17.011 C613.825,19.235 647.737,27.404 680.708,39.488 C736.934,60.095 787.79,89.975 833.433,128.663 C850.096,142.788 865.662,158.082 878.776,175.684 C882.004,180.018 881.999,179.992 876.66,181.002 C859.301,184.285 841.954,184.639 824.664,180.622 C820.882,179.743 817.708,180.278 815.24,183.345 C812.677,186.529 813.349,189.778 815.16,193.108 C830.568,221.424 837.107,252.075 839.527,283.929 C841.599,311.2 839.003,338.082 834.221,364.859 C834.021,365.977 833.571,367.05 832.962,369.044 C826.814,352.184 820.327,336.427 812.487,321.253 C795.375,288.131 773.878,258.261 746.718,232.617 C706.772,194.899 659.678,170.743 606.193,158.708 C570.871,150.76 535.022,149.229 499.005,149.607 C449.598,150.125 401.201,156.834 354.499,173.596 C313.961,188.145 277.699,209.507 247.899,241.053 C247.59,241.38 247.17,241.602 246.371,242.191" fill="#AAD874"/>
    <path d="M712.331,315.69 C701.635,319.085 690.523,319.905 679.455,320.347 C652.84,321.411 626.436,318.947 600.198,314.537 C597.738,309.952 593.69,307.377 589.228,304.897 C576.511,297.829 566.71,287.382 557.821,276.094 C542.857,257.089 532.381,235.64 523.922,213.102 C519.296,200.777 515.658,188.171 512.747,175.354 C512.106,172.529 510.649,169.668 512.018,166.633 C519.155,164.372 526.471,165.672 533.633,166.013 C548.032,166.7 562.445,167.551 576.739,169.703 C603.897,173.791 630.399,180.185 655.462,191.738 C658.801,196.974 658.768,203.163 660.113,208.922 C668.679,245.618 684.753,278.62 708.085,308.158 C709.866,310.413 712.57,312.254 712.331,315.69" fill="#D7AA61"/>
    <path d="M931.297,471.012 C931.297,472.177 931.178,473.356 931.32,474.504 C931.7,477.58 930.673,478.805 927.325,479.033 C883.848,481.991 852.78,460.782 840.451,419.423 C838.726,413.638 838.645,408.636 841.151,402.532 C845.861,391.057 847.967,378.619 850.2,366.36 C850.662,363.825 851.138,362.729 853.922,364.032 C882.074,377.207 905.455,395.619 919.796,423.943 C927.279,438.722 930.632,454.548 931.297,471.012" fill="#AAD874"/>
    <path d="M512.018,166.633 C518.056,195.26 527.167,222.805 541.299,248.519 C552.626,269.126 566.209,287.915 585.922,301.471 C588.652,303.349 591.622,304.909 594.588,306.404 C598.001,308.123 600.101,310.601 600.198,314.537 C597.493,322.651 593.534,324.119 585.536,319.893 C564.953,309.019 549.96,292.298 537.399,273.214 C516.686,241.743 504.112,206.971 496.448,170.278 C496.281,169.476 496.35,168.625 496.309,167.796 C496.536,166.808 496.894,165.783 498.085,165.835 C502.732,166.036 507.467,164.782 512.018,166.633" fill="#6E4100"/>
    <path d="M712.331,315.69 C694.001,293.266 678.988,268.897 668.798,241.679 C662.727,225.461 658.12,208.862 655.462,191.738 C661.869,193.647 667.649,196.957 673.608,199.868 C676.141,215.736 681.461,230.761 687.723,245.455 C696.79,266.733 708.721,286.295 723.858,303.823 C726.449,306.823 726.656,310.065 726.18,313.627 C721.428,319.064 718.304,319.529 712.331,315.69" fill="#6E4100"/>
    <path d="M533.193,559.83 C506.086,559.474 484.397,553.174 467.006,535.7 C460.608,529.272 455.56,521.874 452.163,513.422 C450.15,508.411 451.007,505.089 454.576,503.657 C458.301,502.162 461.145,503.846 463.28,508.654 C473.144,530.86 491.042,542.523 514.274,546.401 C538.577,550.458 561.013,546.251 579.883,529.132 C585.975,523.606 590.95,517.194 594.846,509.946 C597.617,504.79 600.503,503.396 604.188,505.413 C607.743,507.36 608.301,510.774 605.42,515.805 C588.755,544.905 563.466,559.277 533.193,559.83" fill="#6E4100"/>
    <path d="M395.399,386.343 C389.58,379.643 386.729,372.021 386.526,363.415 C386.413,358.629 388.495,355.855 392.361,355.73 C397.09,355.578 398.794,358.669 399.129,362.693 C399.365,365.526 399.536,368.342 400.5,371.025 C402.892,377.682 407.108,380.601 414.097,380.534 C429.897,380.383 441.75,389.544 445.645,404.916 C446.881,409.795 444.808,413.758 440.306,415.12 C436.13,416.384 432.201,414.279 430.414,409.82 C426.038,398.903 421.754,395.702 412.75,396.618 C404.017,397.506 396.533,404.976 394.994,414.357 C394.806,415.505 394.651,416.661 394.549,417.82 C394.05,423.463 391.051,426.644 386.379,426.452 C381.746,426.261 378.258,422.057 378.58,416.663 C379.056,408.71 381.264,401.33 386.224,394.899 C388.79,391.572 391.919,388.876 395.399,386.343" fill="#6E4100"/>
    <path d="M687.616,415.581 C687.942,419.375 687.601,422.946 683.91,425.169 C681.105,426.859 678.203,426.788 675.404,425.147 C671.851,423.062 671.793,419.407 671.526,415.93 C670.826,406.806 665.914,400.843 657.596,397.64 C648.696,394.212 640.858,397.707 637.224,406.473 C636.781,407.543 636.512,408.684 636.081,409.76 C634.196,414.463 630.096,416.511 625.728,414.964 C621.32,413.404 619.387,409.417 620.859,404.468 C622.993,397.296 626.518,390.919 632.748,386.52 C635.078,384.874 635.103,383.859 633.539,381.577 C629.675,375.939 628.228,369.476 628.158,362.675 C628.118,358.769 629.822,356.1 633.788,355.798 C637.967,355.481 640.178,357.79 640.542,362.034 C640.81,365.169 640.957,368.399 642.318,371.299 C644.786,376.557 647.703,380.514 654.736,380.727 C672.072,381.254 686.216,396.706 687.616,415.581" fill="#6E4100"/>
    <path d="M412.37,233.201 C419.485,233.504 425.066,236.57 429.05,242.488 C430.855,245.168 431.149,248.002 428.343,249.958 C425.782,251.743 423.196,251.28 420.942,248.654 C414.281,240.891 405.317,241.647 399.772,250.517 C397.862,253.573 395.555,254.965 392.422,253.243 C389.133,251.434 389.51,248.446 391.007,245.449 C394.597,238.259 403.58,233.086 412.37,233.201" fill="#6E4100"/>
    <path d="M527.095,408.614 C529.048,408.521 530.736,409.158 531.876,410.745 C533.611,413.16 535.375,415.579 536.836,418.162 C538.634,421.341 538.073,424.372 534.981,426.404 C532.067,428.318 529.184,427.637 527.067,424.946 C525.234,422.616 523.504,420.146 522.119,417.531 C519.872,413.287 522.538,408.708 527.095,408.614" fill="#6F4300"/>
    <path d="M 492.843 862.239 C 491.208 869.404 487.973 876.693 484.419 883.826 C 474.61 903.517 461.961 920.795 442.387 931.949 C 439.083 933.832 435.579 935.463 432.001 936.742 C 427.725 938.27 423.89 936.4 422.113 932.452 C 420.368 928.578 421.602 924.029 425.698 922.28 C 453.462 910.419 466.907 886.826 476.766 860.303 C 478.318 856.13 480.401 853.287 485.25 853.474 C 489.876 853.652 492.981 856.9 492.843 862.239" fill="#6E4100"/>
    <path d="M616.334,781.93 C616.404,787.775 612.259,791.918 606.303,791.953 C600.641,791.987 596.412,787.992 596.253,782.459 C596.095,776.974 600.772,771.906 606.044,771.847 C611.56,771.786 616.268,776.399 616.334,781.93" fill="#FEFEFD"/>
  </g>
  <text style="fill: rgb(51, 51, 51); font-family: Arial, sans-serif; font-size: 57px; font-style: italic; font-weight: 700; letter-spacing: 1.8px; white-space: pre; text-decoration: overline solid rgba(255, 255, 255, 0.9);"><textPath startOffset="19" xlink:href="#path-1">Deliveroo </textPath></text>
</svg>